<?xml version="1.0" encoding="utf-8" standalone="no"?>
<!DOCTYPE svg PUBLIC "-//W3C//DTD SVG 1.1//EN"
  "http://www.w3.org/Graphics/SVG/1.1/DTD/svg11.dtd">
<!-- Created with matplotlib (https://matplotlib.org/) -->
<svg height="864pt" version="1.1" viewBox="0 0 864 864" width="864pt" xmlns="http://www.w3.org/2000/svg" xmlns:xlink="http://www.w3.org/1999/xlink">
 <defs>
  <style type="text/css">
*{stroke-linecap:butt;stroke-linejoin:round;}
  </style>
 </defs>
 <g id="figure_1">
  <g id="patch_1">
   <path d="M 0 864 
L 864 864 
L 864 0 
L 0 0 
z
" style="fill:#ffffff;"/>
  </g>
  <g id="axes_1">
   <g id="patch_2">
    <path d="M 108 400.189091 
L 412.363636 400.189091 
L 412.363636 103.68 
L 108 103.68 
z
" style="fill:#ffffff;"/>
   </g>
   <g id="matplotlib.axis_1">
    <g id="xtick_1">
     <g id="line2d_1">
      <defs>
       <path d="M 0 0 
L 0 3.5 
" id="md164f9a5d5" style="stroke:#000000;stroke-width:0.8;"/>
      </defs>
      <g>
       <use style="stroke:#000000;stroke-width:0.8;" x="121.834711" xlink:href="#md164f9a5d5" y="400.189091"/>
      </g>
     </g>
     <g id="text_1">
      <!-- 0 -->
      <defs>
       <path d="M 31.78125 66.40625 
Q 24.171875 66.40625 20.328125 58.90625 
Q 16.5 51.421875 16.5 36.375 
Q 16.5 21.390625 20.328125 13.890625 
Q 24.171875 6.390625 31.78125 6.390625 
Q 39.453125 6.390625 43.28125 13.890625 
Q 47.125 21.390625 47.125 36.375 
Q 47.125 51.421875 43.28125 58.90625 
Q 39.453125 66.40625 31.78125 66.40625 
z
M 31.78125 74.21875 
Q 44.046875 74.21875 50.515625 64.515625 
Q 56.984375 54.828125 56.984375 36.375 
Q 56.984375 17.96875 50.515625 8.265625 
Q 44.046875 -1.421875 31.78125 -1.421875 
Q 19.53125 -1.421875 13.0625 8.265625 
Q 6.59375 17.96875 6.59375 36.375 
Q 6.59375 54.828125 13.0625 64.515625 
Q 19.53125 74.21875 31.78125 74.21875 
z
" id="DejaVuSans-48"/>
      </defs>
      <g transform="translate(118.653461 414.787528)scale(0.1 -0.1)">
       <use xlink:href="#DejaVuSans-48"/>
      </g>
     </g>
    </g>
    <g id="xtick_2">
     <g id="line2d_2">
      <g>
       <use style="stroke:#000000;stroke-width:0.8;" x="177.228948" xlink:href="#md164f9a5d5" y="400.189091"/>
      </g>
     </g>
     <g id="text_2">
      <!-- 200 -->
      <defs>
       <path d="M 19.1875 8.296875 
L 53.609375 8.296875 
L 53.609375 0 
L 7.328125 0 
L 7.328125 8.296875 
Q 12.9375 14.109375 22.625 23.890625 
Q 32.328125 33.6875 34.8125 36.53125 
Q 39.546875 41.84375 41.421875 45.53125 
Q 43.3125 49.21875 43.3125 52.78125 
Q 43.3125 58.59375 39.234375 62.25 
Q 35.15625 65.921875 28.609375 65.921875 
Q 23.96875 65.921875 18.8125 64.3125 
Q 13.671875 62.703125 7.8125 59.421875 
L 7.8125 69.390625 
Q 13.765625 71.78125 18.9375 73 
Q 24.125 74.21875 28.421875 74.21875 
Q 39.75 74.21875 46.484375 68.546875 
Q 53.21875 62.890625 53.21875 53.421875 
Q 53.21875 48.921875 51.53125 44.890625 
Q 49.859375 40.875 45.40625 35.40625 
Q 44.1875 33.984375 37.640625 27.21875 
Q 31.109375 20.453125 19.1875 8.296875 
z
" id="DejaVuSans-50"/>
      </defs>
      <g transform="translate(167.685198 414.787528)scale(0.1 -0.1)">
       <use xlink:href="#DejaVuSans-50"/>
       <use x="63.623047" xlink:href="#DejaVuSans-48"/>
       <use x="127.246094" xlink:href="#DejaVuSans-48"/>
      </g>
     </g>
    </g>
    <g id="xtick_3">
     <g id="line2d_3">
      <g>
       <use style="stroke:#000000;stroke-width:0.8;" x="232.623185" xlink:href="#md164f9a5d5" y="400.189091"/>
      </g>
     </g>
     <g id="text_3">
      <!-- 400 -->
      <defs>
       <path d="M 37.796875 64.3125 
L 12.890625 25.390625 
L 37.796875 25.390625 
z
M 35.203125 72.90625 
L 47.609375 72.90625 
L 47.609375 25.390625 
L 58.015625 25.390625 
L 58.015625 17.1875 
L 47.609375 17.1875 
L 47.609375 0 
L 37.796875 0 
L 37.796875 17.1875 
L 4.890625 17.1875 
L 4.890625 26.703125 
z
" id="DejaVuSans-52"/>
      </defs>
      <g transform="translate(223.079435 414.787528)scale(0.1 -0.1)">
       <use xlink:href="#DejaVuSans-52"/>
       <use x="63.623047" xlink:href="#DejaVuSans-48"/>
       <use x="127.246094" xlink:href="#DejaVuSans-48"/>
      </g>
     </g>
    </g>
    <g id="xtick_4">
     <g id="line2d_4">
      <g>
       <use style="stroke:#000000;stroke-width:0.8;" x="288.017422" xlink:href="#md164f9a5d5" y="400.189091"/>
      </g>
     </g>
     <g id="text_4">
      <!-- 600 -->
      <defs>
       <path d="M 33.015625 40.375 
Q 26.375 40.375 22.484375 35.828125 
Q 18.609375 31.296875 18.609375 23.390625 
Q 18.609375 15.53125 22.484375 10.953125 
Q 26.375 6.390625 33.015625 6.390625 
Q 39.65625 6.390625 43.53125 10.953125 
Q 47.40625 15.53125 47.40625 23.390625 
Q 47.40625 31.296875 43.53125 35.828125 
Q 39.65625 40.375 33.015625 40.375 
z
M 52.59375 71.296875 
L 52.59375 62.3125 
Q 48.875 64.0625 45.09375 64.984375 
Q 41.3125 65.921875 37.59375 65.921875 
Q 27.828125 65.921875 22.671875 59.328125 
Q 17.53125 52.734375 16.796875 39.40625 
Q 19.671875 43.65625 24.015625 45.921875 
Q 28.375 48.1875 33.59375 48.1875 
Q 44.578125 48.1875 50.953125 41.515625 
Q 57.328125 34.859375 57.328125 23.390625 
Q 57.328125 12.15625 50.6875 5.359375 
Q 44.046875 -1.421875 33.015625 -1.421875 
Q 20.359375 -1.421875 13.671875 8.265625 
Q 6.984375 17.96875 6.984375 36.375 
Q 6.984375 53.65625 15.1875 63.9375 
Q 23.390625 74.21875 37.203125 74.21875 
Q 40.921875 74.21875 44.703125 73.484375 
Q 48.484375 72.75 52.59375 71.296875 
z
" id="DejaVuSans-54"/>
      </defs>
      <g transform="translate(278.473672 414.787528)scale(0.1 -0.1)">
       <use xlink:href="#DejaVuSans-54"/>
       <use x="63.623047" xlink:href="#DejaVuSans-48"/>
       <use x="127.246094" xlink:href="#DejaVuSans-48"/>
      </g>
     </g>
    </g>
    <g id="xtick_5">
     <g id="line2d_5">
      <g>
       <use style="stroke:#000000;stroke-width:0.8;" x="343.41166" xlink:href="#md164f9a5d5" y="400.189091"/>
      </g>
     </g>
     <g id="text_5">
      <!-- 800 -->
      <defs>
       <path d="M 31.78125 34.625 
Q 24.75 34.625 20.71875 30.859375 
Q 16.703125 27.09375 16.703125 20.515625 
Q 16.703125 13.921875 20.71875 10.15625 
Q 24.75 6.390625 31.78125 6.390625 
Q 38.8125 6.390625 42.859375 10.171875 
Q 46.921875 13.96875 46.921875 20.515625 
Q 46.921875 27.09375 42.890625 30.859375 
Q 38.875 34.625 31.78125 34.625 
z
M 21.921875 38.8125 
Q 15.578125 40.375 12.03125 44.71875 
Q 8.5 49.078125 8.5 55.328125 
Q 8.5 64.0625 14.71875 69.140625 
Q 20.953125 74.21875 31.78125 74.21875 
Q 42.671875 74.21875 48.875 69.140625 
Q 55.078125 64.0625 55.078125 55.328125 
Q 55.078125 49.078125 51.53125 44.71875 
Q 48 40.375 41.703125 38.8125 
Q 48.828125 37.15625 52.796875 32.3125 
Q 56.78125 27.484375 56.78125 20.515625 
Q 56.78125 9.90625 50.3125 4.234375 
Q 43.84375 -1.421875 31.78125 -1.421875 
Q 19.734375 -1.421875 13.25 4.234375 
Q 6.78125 9.90625 6.78125 20.515625 
Q 6.78125 27.484375 10.78125 32.3125 
Q 14.796875 37.15625 21.921875 38.8125 
z
M 18.3125 54.390625 
Q 18.3125 48.734375 21.84375 45.5625 
Q 25.390625 42.390625 31.78125 42.390625 
Q 38.140625 42.390625 41.71875 45.5625 
Q 45.3125 48.734375 45.3125 54.390625 
Q 45.3125 60.0625 41.71875 63.234375 
Q 38.140625 66.40625 31.78125 66.40625 
Q 25.390625 66.40625 21.84375 63.234375 
Q 18.3125 60.0625 18.3125 54.390625 
z
" id="DejaVuSans-56"/>
      </defs>
      <g transform="translate(333.86791 414.787528)scale(0.1 -0.1)">
       <use xlink:href="#DejaVuSans-56"/>
       <use x="63.623047" xlink:href="#DejaVuSans-48"/>
       <use x="127.246094" xlink:href="#DejaVuSans-48"/>
      </g>
     </g>
    </g>
    <g id="xtick_6">
     <g id="line2d_6">
      <g>
       <use style="stroke:#000000;stroke-width:0.8;" x="398.805897" xlink:href="#md164f9a5d5" y="400.189091"/>
      </g>
     </g>
     <g id="text_6">
      <!-- 1000 -->
      <defs>
       <path d="M 12.40625 8.296875 
L 28.515625 8.296875 
L 28.515625 63.921875 
L 10.984375 60.40625 
L 10.984375 69.390625 
L 28.421875 72.90625 
L 38.28125 72.90625 
L 38.28125 8.296875 
L 54.390625 8.296875 
L 54.390625 0 
L 12.40625 0 
z
" id="DejaVuSans-49"/>
      </defs>
      <g transform="translate(386.080897 414.787528)scale(0.1 -0.1)">
       <use xlink:href="#DejaVuSans-49"/>
       <use x="63.623047" xlink:href="#DejaVuSans-48"/>
       <use x="127.246094" xlink:href="#DejaVuSans-48"/>
       <use x="190.869141" xlink:href="#DejaVuSans-48"/>
      </g>
     </g>
    </g>
   </g>
   <g id="matplotlib.axis_2">
    <g id="ytick_1">
     <g id="line2d_7">
      <defs>
       <path d="M 0 0 
L -3.5 0 
" id="m7efda19db3" style="stroke:#000000;stroke-width:0.8;"/>
      </defs>
      <g>
       <use style="stroke:#000000;stroke-width:0.8;" x="108" xlink:href="#m7efda19db3" y="386.639333"/>
      </g>
     </g>
     <g id="text_7">
      <!-- 0 -->
      <g transform="translate(94.6375 390.438552)scale(0.1 -0.1)">
       <use xlink:href="#DejaVuSans-48"/>
      </g>
     </g>
    </g>
    <g id="ytick_2">
     <g id="line2d_8">
      <g>
       <use style="stroke:#000000;stroke-width:0.8;" x="108" xlink:href="#m7efda19db3" y="338.928149"/>
      </g>
     </g>
     <g id="text_8">
      <!-- 5 -->
      <defs>
       <path d="M 10.796875 72.90625 
L 49.515625 72.90625 
L 49.515625 64.59375 
L 19.828125 64.59375 
L 19.828125 46.734375 
Q 21.96875 47.46875 24.109375 47.828125 
Q 26.265625 48.1875 28.421875 48.1875 
Q 40.625 48.1875 47.75 41.5 
Q 54.890625 34.8125 54.890625 23.390625 
Q 54.890625 11.625 47.5625 5.09375 
Q 40.234375 -1.421875 26.90625 -1.421875 
Q 22.3125 -1.421875 17.546875 -0.640625 
Q 12.796875 0.140625 7.71875 1.703125 
L 7.71875 11.625 
Q 12.109375 9.234375 16.796875 8.0625 
Q 21.484375 6.890625 26.703125 6.890625 
Q 35.15625 6.890625 40.078125 11.328125 
Q 45.015625 15.765625 45.015625 23.390625 
Q 45.015625 31 40.078125 35.4375 
Q 35.15625 39.890625 26.703125 39.890625 
Q 22.75 39.890625 18.8125 39.015625 
Q 14.890625 38.140625 10.796875 36.28125 
z
" id="DejaVuSans-53"/>
      </defs>
      <g transform="translate(94.6375 342.727368)scale(0.1 -0.1)">
       <use xlink:href="#DejaVuSans-53"/>
      </g>
     </g>
    </g>
    <g id="ytick_3">
     <g id="line2d_9">
      <g>
       <use style="stroke:#000000;stroke-width:0.8;" x="108" xlink:href="#m7efda19db3" y="291.216965"/>
      </g>
     </g>
     <g id="text_9">
      <!-- 10 -->
      <g transform="translate(88.275 295.016184)scale(0.1 -0.1)">
       <use xlink:href="#DejaVuSans-49"/>
       <use x="63.623047" xlink:href="#DejaVuSans-48"/>
      </g>
     </g>
    </g>
    <g id="ytick_4">
     <g id="line2d_10">
      <g>
       <use style="stroke:#000000;stroke-width:0.8;" x="108" xlink:href="#m7efda19db3" y="243.505781"/>
      </g>
     </g>
     <g id="text_10">
      <!-- 15 -->
      <g transform="translate(88.275 247.304999)scale(0.1 -0.1)">
       <use xlink:href="#DejaVuSans-49"/>
       <use x="63.623047" xlink:href="#DejaVuSans-53"/>
      </g>
     </g>
    </g>
    <g id="ytick_5">
     <g id="line2d_11">
      <g>
       <use style="stroke:#000000;stroke-width:0.8;" x="108" xlink:href="#m7efda19db3" y="195.794597"/>
      </g>
     </g>
     <g id="text_11">
      <!-- 20 -->
      <g transform="translate(88.275 199.593815)scale(0.1 -0.1)">
       <use xlink:href="#DejaVuSans-50"/>
       <use x="63.623047" xlink:href="#DejaVuSans-48"/>
      </g>
     </g>
    </g>
    <g id="ytick_6">
     <g id="line2d_12">
      <g>
       <use style="stroke:#000000;stroke-width:0.8;" x="108" xlink:href="#m7efda19db3" y="148.083412"/>
      </g>
     </g>
     <g id="text_12">
      <!-- 25 -->
      <g transform="translate(88.275 151.882631)scale(0.1 -0.1)">
       <use xlink:href="#DejaVuSans-50"/>
       <use x="63.623047" xlink:href="#DejaVuSans-53"/>
      </g>
     </g>
    </g>
   </g>
   <g id="line2d_13">
    <path clip-path="url(#pbee0288781)" d="M 121.834711 386.627504 
L 124.05048 386.63503 
L 124.327451 334.342347 
L 124.604423 386.67132 
L 125.435336 386.623366 
L 125.712307 366.586715 
L 125.989279 386.646608 
L 127.097163 386.604799 
L 127.374134 377.051517 
L 127.651106 363.258278 
L 128.205048 386.600186 
L 128.482019 386.632177 
L 128.75899 377.05362 
L 129.035962 386.605806 
L 129.866875 386.615589 
L 130.420818 386.616948 
L 130.697789 386.711405 
L 131.251731 386.625049 
L 133.190529 386.627576 
L 133.744472 386.638671 
L 134.298414 386.647961 
L 134.852356 386.635821 
L 135.68327 386.662796 
L 136.514184 386.607654 
L 137.068126 386.669981 
L 137.345097 364.304039 
L 137.622068 370.04878 
L 137.89904 363.939223 
L 138.176011 349.17775 
L 138.452982 386.623422 
L 138.729953 386.628034 
L 139.006924 359.002784 
L 139.283895 377.153922 
L 139.560867 376.987838 
L 139.837838 373.232506 
L 140.114809 377.149942 
L 140.39178 362.659152 
L 140.668751 386.617866 
L 141.776636 386.615107 
L 142.053607 364.702486 
L 142.60755 364.654127 
L 143.161492 386.605548 
L 143.992406 386.609404 
L 144.546348 364.597234 
L 145.10029 386.613827 
L 147.31606 386.623129 
L 148.700916 386.669373 
L 149.531829 386.596097 
L 149.808801 319.09782 
L 150.085772 320.982478 
L 150.362743 366.987968 
L 150.639714 386.638668 
L 152.578512 386.65015 
L 152.855484 377.051042 
L 153.132455 377.170282 
L 153.409426 386.629987 
L 154.24034 386.639259 
L 154.517311 377.187076 
L 155.071253 345.930814 
L 155.348224 322.90679 
L 155.625195 345.661755 
L 155.902167 386.628176 
L 157.563994 386.653681 
L 157.840965 377.123588 
L 158.117936 344.889403 
L 158.394907 346.843319 
L 158.671878 386.658001 
L 160.056734 386.645146 
L 160.610677 367.25624 
L 160.887648 386.675153 
L 161.164619 377.098062 
L 161.44159 377.141937 
L 161.718562 377.00534 
L 161.995533 377.061415 
L 162.272504 300.563355 
L 162.549475 386.62894 
L 163.380389 386.652995 
L 163.65736 315.435062 
L 163.934331 117.157686 
L 164.211302 368.176878 
L 164.765245 386.69184 
L 165.042216 386.617881 
L 165.319187 386.667947 
L 165.596158 377.158097 
L 165.873129 386.649128 
L 166.981014 386.660963 
L 167.257985 386.65987 
L 167.534956 377.018615 
L 167.811928 377.064701 
L 168.088899 364.605875 
L 168.642841 386.631262 
L 169.196784 386.64232 
L 169.473755 361.860863 
L 169.750726 359.254978 
L 170.027697 386.625619 
L 171.689524 386.587782 
L 171.966495 376.964933 
L 172.520438 377.173584 
L 172.797409 386.662156 
L 173.905294 386.646033 
L 174.182265 362.875817 
L 174.459236 386.614108 
L 175.29015 386.632032 
L 176.121063 386.648194 
L 176.398034 377.079939 
L 176.675006 386.6466 
L 178.059862 386.651948 
L 178.890775 386.663134 
L 179.167746 377.131334 
L 179.444717 386.633732 
L 180.275631 386.623426 
L 180.829573 386.66844 
L 181.383516 343.856151 
L 181.660487 368.865578 
L 181.937458 346.90126 
L 182.214429 386.62123 
L 182.768372 386.639373 
L 183.045343 377.019871 
L 183.322314 350.974534 
L 183.599285 343.548892 
L 183.876256 386.64428 
L 184.430199 386.630007 
L 184.70717 377.0866 
L 184.984141 377.056294 
L 185.261112 365.654779 
L 185.538084 386.647243 
L 187.476882 386.641975 
L 188.584767 386.639259 
L 188.861738 377.203528 
L 189.138709 336.646294 
L 189.41568 348.178015 
L 189.692651 386.635141 
L 189.969623 386.658981 
L 190.246594 336.359457 
L 190.523565 377.077195 
L 190.800536 274.158278 
L 191.077507 362.700562 
L 191.354478 386.642094 
L 191.908421 386.627669 
L 192.185392 377.096097 
L 192.462363 386.635773 
L 192.739334 359.145117 
L 193.016306 320.394483 
L 193.293277 359.824247 
L 193.570248 367.197554 
L 193.847219 337.35552 
L 194.12419 386.664775 
L 195.232075 386.621613 
L 196.062989 386.647202 
L 196.33996 376.972438 
L 196.616931 372.710042 
L 196.893902 386.635918 
L 199.109672 386.61537 
L 199.663614 386.645447 
L 199.940585 377.024906 
L 200.217556 386.649674 
L 202.433326 386.652868 
L 202.987268 367.61828 
L 203.541211 386.66322 
L 204.372124 386.658845 
L 204.649095 377.023724 
L 204.926067 377.082762 
L 205.203038 386.620074 
L 209.911548 386.591943 
L 210.188519 357.336204 
L 210.46549 386.627741 
L 210.742461 377.060157 
L 211.019433 353.397053 
L 211.296404 366.798469 
L 211.573375 328.647556 
L 211.850346 367.144816 
L 212.127317 377.073991 
L 212.404289 329.613401 
L 212.958231 377.003864 
L 213.235202 377.064136 
L 213.512173 386.62972 
L 213.789145 377.104218 
L 214.066116 386.673519 
L 215.174 386.63519 
L 217.112799 386.671341 
L 217.666741 386.648523 
L 220.436453 386.646443 
L 220.713424 377.148605 
L 220.990395 386.616564 
L 221.821309 386.636906 
L 222.652222 386.604474 
L 222.929194 377.054268 
L 223.760107 377.113954 
L 224.037078 386.646475 
L 224.867992 386.654106 
L 226.252848 386.626842 
L 226.529819 377.061027 
L 226.80679 386.642854 
L 227.360733 386.64657 
L 227.637704 363.710687 
L 227.914675 386.618986 
L 228.191646 377.087771 
L 228.468617 386.608672 
L 230.684387 386.615348 
L 230.961358 355.596651 
L 231.238329 351.354282 
L 231.5153 334.053706 
L 232.069243 368.32185 
L 232.346214 366.378023 
L 232.623185 377.117261 
L 232.900156 377.182926 
L 233.177128 386.636732 
L 233.454099 386.637281 
L 233.73107 300.110637 
L 234.008041 377.050507 
L 234.285012 377.032327 
L 234.561983 386.622729 
L 235.392897 386.611295 
L 235.669868 386.595867 
L 235.946839 377.091069 
L 236.223811 386.63682 
L 236.500782 377.13107 
L 236.777753 386.639947 
L 238.716551 386.604483 
L 238.993522 377.100744 
L 239.270494 386.669805 
L 240.932321 386.615556 
L 243.425061 386.647377 
L 244.532946 386.617595 
L 245.086889 386.628679 
L 245.36386 357.871882 
L 245.640831 386.602953 
L 246.748716 386.638093 
L 247.025687 317.726131 
L 247.302658 367.728219 
L 247.579629 386.640298 
L 248.133572 386.656775 
L 248.687514 386.60225 
L 248.964485 364.921669 
L 249.241456 352.181084 
L 249.518428 350.54554 
L 250.07237 386.633475 
L 256.165736 386.6305 
L 256.442707 377.002143 
L 256.719678 336.615652 
L 256.99665 370.149518 
L 257.550592 386.620863 
L 257.827563 377.067583 
L 258.104534 339.517693 
L 258.381505 374.513605 
L 258.658477 386.60908 
L 258.935448 386.696568 
L 259.766361 386.63884 
L 261.151217 386.602687 
L 261.428189 336.748208 
L 261.70516 334.440622 
L 261.982131 377.13432 
L 262.259102 357.020099 
L 262.536073 386.657278 
L 263.920929 386.616762 
L 264.1979 377.048149 
L 264.474872 327.650369 
L 265.028814 386.645349 
L 267.798526 386.668412 
L 268.075497 386.621384 
L 268.352468 365.985268 
L 268.629439 377.147817 
L 268.906411 342.097323 
L 269.183382 121.528218 
L 269.737324 295.449136 
L 270.014295 353.180473 
L 270.291266 315.396848 
L 270.568238 345.676739 
L 270.845209 278.919794 
L 271.12218 183.098812 
L 271.953094 353.723976 
L 272.230065 336.304871 
L 272.507036 273.753285 
L 272.784007 280.323259 
L 273.060978 260.627356 
L 273.33795 267.106023 
L 273.614921 243.809808 
L 273.891892 210.145364 
L 274.445834 328.004668 
L 274.722805 316.211056 
L 274.999777 324.080565 
L 275.276748 218.98358 
L 275.553719 200.00471 
L 276.107661 325.789732 
L 276.384633 251.109846 
L 276.661604 348.177002 
L 276.938575 377.067135 
L 277.215546 377.118311 
L 277.492517 377.046065 
L 277.769488 386.655253 
L 279.431316 386.615763 
L 279.708287 344.451515 
L 279.985258 344.821925 
L 280.262229 377.123743 
L 280.5392 377.019184 
L 280.816172 386.642075 
L 282.75497 386.646635 
L 283.585883 386.618391 
L 284.139826 367.555173 
L 284.416797 386.666863 
L 284.693768 386.612 
L 284.970739 377.081624 
L 285.247711 386.639586 
L 286.355595 386.653121 
L 286.909538 369.503781 
L 287.46348 386.598883 
L 288.294394 386.6531 
L 291.341077 386.640707 
L 291.618048 376.948863 
L 291.895019 386.677032 
L 292.725933 386.629188 
L 293.279875 386.637326 
L 293.556846 377.152358 
L 293.833817 386.621089 
L 295.772616 386.649646 
L 296.049587 386.635474 
L 296.326558 365.202962 
L 296.603529 386.613813 
L 296.8805 386.678868 
L 297.434443 386.636957 
L 298.542327 386.634744 
L 298.819299 377.125641 
L 299.09627 386.628302 
L 300.204155 386.675805 
L 300.481126 386.60053 
L 300.758097 386.644214 
L 301.035068 367.389746 
L 301.58901 386.655007 
L 302.419924 386.605502 
L 303.250838 386.660044 
L 304.081751 386.601607 
L 305.189636 386.661897 
L 305.743578 386.629496 
L 306.020549 377.148535 
L 306.297521 317.575232 
L 306.574492 362.555014 
L 306.851463 386.678782 
L 307.682377 386.601208 
L 308.236319 386.632354 
L 308.51329 294.818713 
L 308.790261 359.321497 
L 309.067233 386.65573 
L 309.344204 363.950235 
L 309.621175 386.650018 
L 312.113916 386.618998 
L 312.390887 376.97112 
L 312.944829 377.12215 
L 313.2218 386.671995 
L 314.052714 386.629505 
L 314.883627 386.647111 
L 315.160599 360.366973 
L 315.43757 386.606002 
L 317.93031 386.629686 
L 318.761224 386.65432 
L 322.638821 386.604632 
L 322.915792 377.04496 
L 323.192763 334.672451 
L 323.469734 386.652039 
L 324.85459 386.643971 
L 326.516417 386.615625 
L 326.793388 347.110087 
L 327.07036 325.805741 
L 327.347331 386.666431 
L 327.901273 386.63611 
L 329.286129 386.65972 
L 330.117043 386.606015 
L 330.670985 386.63447 
L 332.055841 386.64572 
L 334.825553 386.662458 
L 335.379495 386.630864 
L 335.933438 386.659866 
L 336.210409 356.571524 
L 336.48738 386.618251 
L 337.595265 386.622276 
L 338.149207 386.617865 
L 338.980121 386.651231 
L 339.257092 377.108516 
L 339.534063 386.6421 
L 342.026804 386.634501 
L 342.303775 233.679323 
L 342.580746 369.129562 
L 343.134688 386.610947 
L 343.41166 386.641257 
L 343.688631 377.114324 
L 343.965602 386.647849 
L 345.350458 386.655665 
L 345.627429 364.11753 
L 345.9044 386.647917 
L 346.735314 386.652215 
L 347.012285 377.16197 
L 347.289256 377.143205 
L 347.566227 342.240144 
L 347.843199 340.530323 
L 348.12017 367.744502 
L 348.397141 340.469119 
L 348.674112 331.98946 
L 348.951083 337.38904 
L 349.228055 386.615206 
L 349.781997 386.617361 
L 350.058968 357.598392 
L 350.335939 386.655513 
L 351.166853 386.649219 
L 351.443824 362.169092 
L 351.720795 377.040853 
L 351.997766 324.866963 
L 352.274738 377.129771 
L 352.551709 376.99243 
L 352.82868 337.991051 
L 353.105651 368.84535 
L 353.382622 365.72275 
L 353.659593 364.452864 
L 353.936565 386.667097 
L 355.044449 386.635416 
L 355.321421 377.060925 
L 355.598392 386.649099 
L 355.875363 377.156334 
L 356.152334 386.637853 
L 356.983248 386.669651 
L 357.260219 377.068469 
L 357.53719 377.159277 
L 357.814161 369.180194 
L 358.091132 386.604448 
L 360.583873 386.64311 
L 361.414787 386.646278 
L 361.691758 386.684397 
L 361.968729 336.134499 
L 362.522671 361.785739 
L 362.799643 386.641346 
L 365.015412 386.670147 
L 365.292383 377.158865 
L 365.569354 386.647144 
L 367.785124 386.61979 
L 368.062095 377.12108 
L 368.339066 386.637171 
L 368.616038 370.577626 
L 368.893009 386.667344 
L 370.277865 386.619671 
L 371.108778 386.628408 
L 371.385749 386.600354 
L 371.662721 377.046703 
L 371.939692 386.608234 
L 372.493634 386.642249 
L 373.047577 386.614059 
L 373.324548 368.717672 
L 373.601519 386.615465 
L 375.817288 386.647949 
L 376.09426 360.179848 
L 376.371231 367.793234 
L 376.648202 386.631453 
L 379.140943 386.670223 
L 379.417914 386.613261 
L 379.694885 359.287165 
L 379.971856 386.628734 
L 380.80277 386.618356 
L 381.633683 386.61202 
L 381.910654 377.05877 
L 382.187626 256.003369 
L 382.464597 377.044438 
L 382.741568 377.131333 
L 383.018539 386.629442 
L 383.849453 386.655467 
L 386.065222 386.632337 
L 386.342193 377.147964 
L 386.619165 386.65177 
L 386.896136 377.076317 
L 387.173107 377.100136 
L 387.450078 386.639892 
L 387.727049 386.615822 
L 388.004021 341.681243 
L 388.280992 366.443481 
L 388.557963 377.152299 
L 388.834934 359.842733 
L 389.111905 359.954156 
L 389.388876 386.648887 
L 392.989502 386.624407 
L 393.266473 363.029503 
L 393.543444 377.131932 
L 393.820415 324.415987 
L 394.097387 386.621861 
L 394.651329 386.63055 
L 394.9283 364.806927 
L 395.205271 386.677488 
L 396.313156 386.642668 
L 397.421041 386.652872 
L 397.974983 365.859858 
L 398.251954 386.657459 
L 398.528926 364.429693 
L 398.528926 364.429693 
" style="fill:none;stroke:#1f77b4;stroke-linecap:square;stroke-width:1.5;"/>
   </g>
   <g id="patch_3">
    <path d="M 108 400.189091 
L 108 103.68 
" style="fill:none;stroke:#000000;stroke-linecap:square;stroke-linejoin:miter;stroke-width:0.8;"/>
   </g>
   <g id="patch_4">
    <path d="M 412.363636 400.189091 
L 412.363636 103.68 
" style="fill:none;stroke:#000000;stroke-linecap:square;stroke-linejoin:miter;stroke-width:0.8;"/>
   </g>
   <g id="patch_5">
    <path d="M 108 400.189091 
L 412.363636 400.189091 
" style="fill:none;stroke:#000000;stroke-linecap:square;stroke-linejoin:miter;stroke-width:0.8;"/>
   </g>
   <g id="patch_6">
    <path d="M 108 103.68 
L 412.363636 103.68 
" style="fill:none;stroke:#000000;stroke-linecap:square;stroke-linejoin:miter;stroke-width:0.8;"/>
   </g>
  </g>
  <g id="axes_2">
   <g id="patch_7">
    <path d="M 473.236364 400.189091 
L 777.6 400.189091 
L 777.6 103.68 
L 473.236364 103.68 
z
" style="fill:#ffffff;"/>
   </g>
   <g id="matplotlib.axis_3">
    <g id="xtick_7">
     <g id="line2d_14">
      <g>
       <use style="stroke:#000000;stroke-width:0.8;" x="487.071074" xlink:href="#md164f9a5d5" y="400.189091"/>
      </g>
     </g>
     <g id="text_13">
      <!-- 0 -->
      <g transform="translate(483.889824 414.787528)scale(0.1 -0.1)">
       <use xlink:href="#DejaVuSans-48"/>
      </g>
     </g>
    </g>
    <g id="xtick_8">
     <g id="line2d_15">
      <g>
       <use style="stroke:#000000;stroke-width:0.8;" x="542.465312" xlink:href="#md164f9a5d5" y="400.189091"/>
      </g>
     </g>
     <g id="text_14">
      <!-- 200 -->
      <g transform="translate(532.921562 414.787528)scale(0.1 -0.1)">
       <use xlink:href="#DejaVuSans-50"/>
       <use x="63.623047" xlink:href="#DejaVuSans-48"/>
       <use x="127.246094" xlink:href="#DejaVuSans-48"/>
      </g>
     </g>
    </g>
    <g id="xtick_9">
     <g id="line2d_16">
      <g>
       <use style="stroke:#000000;stroke-width:0.8;" x="597.859549" xlink:href="#md164f9a5d5" y="400.189091"/>
      </g>
     </g>
     <g id="text_15">
      <!-- 400 -->
      <g transform="translate(588.315799 414.787528)scale(0.1 -0.1)">
       <use xlink:href="#DejaVuSans-52"/>
       <use x="63.623047" xlink:href="#DejaVuSans-48"/>
       <use x="127.246094" xlink:href="#DejaVuSans-48"/>
      </g>
     </g>
    </g>
    <g id="xtick_10">
     <g id="line2d_17">
      <g>
       <use style="stroke:#000000;stroke-width:0.8;" x="653.253786" xlink:href="#md164f9a5d5" y="400.189091"/>
      </g>
     </g>
     <g id="text_16">
      <!-- 600 -->
      <g transform="translate(643.710036 414.787528)scale(0.1 -0.1)">
       <use xlink:href="#DejaVuSans-54"/>
       <use x="63.623047" xlink:href="#DejaVuSans-48"/>
       <use x="127.246094" xlink:href="#DejaVuSans-48"/>
      </g>
     </g>
    </g>
    <g id="xtick_11">
     <g id="line2d_18">
      <g>
       <use style="stroke:#000000;stroke-width:0.8;" x="708.648023" xlink:href="#md164f9a5d5" y="400.189091"/>
      </g>
     </g>
     <g id="text_17">
      <!-- 800 -->
      <g transform="translate(699.104273 414.787528)scale(0.1 -0.1)">
       <use xlink:href="#DejaVuSans-56"/>
       <use x="63.623047" xlink:href="#DejaVuSans-48"/>
       <use x="127.246094" xlink:href="#DejaVuSans-48"/>
      </g>
     </g>
    </g>
    <g id="xtick_12">
     <g id="line2d_19">
      <g>
       <use style="stroke:#000000;stroke-width:0.8;" x="764.04226" xlink:href="#md164f9a5d5" y="400.189091"/>
      </g>
     </g>
     <g id="text_18">
      <!-- 1000 -->
      <g transform="translate(751.31726 414.787528)scale(0.1 -0.1)">
       <use xlink:href="#DejaVuSans-49"/>
       <use x="63.623047" xlink:href="#DejaVuSans-48"/>
       <use x="127.246094" xlink:href="#DejaVuSans-48"/>
       <use x="190.869141" xlink:href="#DejaVuSans-48"/>
      </g>
     </g>
    </g>
   </g>
   <g id="matplotlib.axis_4">
    <g id="ytick_7">
     <g id="line2d_20">
      <g>
       <use style="stroke:#000000;stroke-width:0.8;" x="473.236364" xlink:href="#m7efda19db3" y="386.675235"/>
      </g>
     </g>
     <g id="text_19">
      <!-- 0 -->
      <g transform="translate(459.873864 390.474453)scale(0.1 -0.1)">
       <use xlink:href="#DejaVuSans-48"/>
      </g>
     </g>
    </g>
    <g id="ytick_8">
     <g id="line2d_21">
      <g>
       <use style="stroke:#000000;stroke-width:0.8;" x="473.236364" xlink:href="#m7efda19db3" y="329.482757"/>
      </g>
     </g>
     <g id="text_20">
      <!-- 10 -->
      <g transform="translate(453.511364 333.281975)scale(0.1 -0.1)">
       <use xlink:href="#DejaVuSans-49"/>
       <use x="63.623047" xlink:href="#DejaVuSans-48"/>
      </g>
     </g>
    </g>
    <g id="ytick_9">
     <g id="line2d_22">
      <g>
       <use style="stroke:#000000;stroke-width:0.8;" x="473.236364" xlink:href="#m7efda19db3" y="272.290279"/>
      </g>
     </g>
     <g id="text_21">
      <!-- 20 -->
      <g transform="translate(453.511364 276.089497)scale(0.1 -0.1)">
       <use xlink:href="#DejaVuSans-50"/>
       <use x="63.623047" xlink:href="#DejaVuSans-48"/>
      </g>
     </g>
    </g>
    <g id="ytick_10">
     <g id="line2d_23">
      <g>
       <use style="stroke:#000000;stroke-width:0.8;" x="473.236364" xlink:href="#m7efda19db3" y="215.097801"/>
      </g>
     </g>
     <g id="text_22">
      <!-- 30 -->
      <defs>
       <path d="M 40.578125 39.3125 
Q 47.65625 37.796875 51.625 33 
Q 55.609375 28.21875 55.609375 21.1875 
Q 55.609375 10.40625 48.1875 4.484375 
Q 40.765625 -1.421875 27.09375 -1.421875 
Q 22.515625 -1.421875 17.65625 -0.515625 
Q 12.796875 0.390625 7.625 2.203125 
L 7.625 11.71875 
Q 11.71875 9.328125 16.59375 8.109375 
Q 21.484375 6.890625 26.8125 6.890625 
Q 36.078125 6.890625 40.9375 10.546875 
Q 45.796875 14.203125 45.796875 21.1875 
Q 45.796875 27.640625 41.28125 31.265625 
Q 36.765625 34.90625 28.71875 34.90625 
L 20.21875 34.90625 
L 20.21875 43.015625 
L 29.109375 43.015625 
Q 36.375 43.015625 40.234375 45.921875 
Q 44.09375 48.828125 44.09375 54.296875 
Q 44.09375 59.90625 40.109375 62.90625 
Q 36.140625 65.921875 28.71875 65.921875 
Q 24.65625 65.921875 20.015625 65.03125 
Q 15.375 64.15625 9.8125 62.3125 
L 9.8125 71.09375 
Q 15.4375 72.65625 20.34375 73.4375 
Q 25.25 74.21875 29.59375 74.21875 
Q 40.828125 74.21875 47.359375 69.109375 
Q 53.90625 64.015625 53.90625 55.328125 
Q 53.90625 49.265625 50.4375 45.09375 
Q 46.96875 40.921875 40.578125 39.3125 
z
" id="DejaVuSans-51"/>
      </defs>
      <g transform="translate(453.511364 218.897019)scale(0.1 -0.1)">
       <use xlink:href="#DejaVuSans-51"/>
       <use x="63.623047" xlink:href="#DejaVuSans-48"/>
      </g>
     </g>
    </g>
    <g id="ytick_11">
     <g id="line2d_24">
      <g>
       <use style="stroke:#000000;stroke-width:0.8;" x="473.236364" xlink:href="#m7efda19db3" y="157.905323"/>
      </g>
     </g>
     <g id="text_23">
      <!-- 40 -->
      <g transform="translate(453.511364 161.704541)scale(0.1 -0.1)">
       <use xlink:href="#DejaVuSans-52"/>
       <use x="63.623047" xlink:href="#DejaVuSans-48"/>
      </g>
     </g>
    </g>
   </g>
   <g id="line2d_25">
    <path clip-path="url(#pe5a192d5cd)" d="M 487.071074 386.65765 
L 488.45593 386.676765 
L 488.732901 386.666433 
L 489.009873 380.955946 
L 489.286844 386.672372 
L 490.394729 386.671923 
L 490.6717 380.963912 
L 490.948671 386.679744 
L 493.16444 386.668748 
L 493.441412 380.940699 
L 493.718383 363.593167 
L 493.995354 380.973492 
L 494.272325 380.957843 
L 494.549296 371.901919 
L 494.826268 368.382916 
L 495.103239 386.676303 
L 495.657181 386.68182 
L 495.934152 354.568365 
L 497.042037 386.661875 
L 498.980835 386.686498 
L 499.257807 386.676332 
L 499.534778 380.967893 
L 499.811749 377.889109 
L 500.08872 373.532579 
L 500.365691 353.598112 
L 500.642662 377.866346 
L 500.919634 375.548894 
L 501.196605 386.681023 
L 502.027518 386.670205 
L 502.581461 386.670518 
L 502.858432 380.975034 
L 503.135403 380.943053 
L 503.412374 309.10584 
L 503.966317 380.963739 
L 504.243288 386.674265 
L 504.520259 386.683068 
L 504.79723 371.583174 
L 505.351173 386.667235 
L 507.013 386.690856 
L 511.72151 386.657924 
L 512.552423 386.695177 
L 513.660308 386.675616 
L 514.768193 386.674277 
L 515.045164 372.742404 
L 515.322135 335.191695 
L 515.599107 386.672414 
L 517.260934 386.654926 
L 517.814876 377.359671 
L 518.091847 380.938872 
L 518.368818 386.677988 
L 518.64579 386.673197 
L 518.922761 329.605912 
L 519.476703 386.675493 
L 519.753674 386.674162 
L 520.030646 307.027046 
L 520.307617 373.37499 
L 520.861559 386.698136 
L 522.800357 386.670961 
L 523.077329 380.958395 
L 523.3543 386.665135 
L 523.631271 386.687959 
L 523.908242 380.981262 
L 524.185213 386.673751 
L 525.293098 386.668261 
L 526.677954 386.662503 
L 526.954925 386.680649 
L 527.508868 359.534963 
L 527.785839 386.678084 
L 528.616752 386.659512 
L 528.893723 380.965627 
L 529.170695 386.671291 
L 530.278579 386.676419 
L 530.555551 372.197546 
L 530.832522 375.783237 
L 531.109493 372.870954 
L 531.386464 380.93275 
L 531.663435 370.524455 
L 531.940407 386.699006 
L 533.325262 386.658706 
L 534.156176 386.645297 
L 534.433147 380.966866 
L 534.710118 380.953464 
L 534.98709 323.311929 
L 535.264061 386.688175 
L 536.371945 386.675325 
L 536.648917 386.670961 
L 536.925888 380.957363 
L 537.202859 369.850704 
L 537.47983 386.688941 
L 538.864686 386.668645 
L 540.803484 386.662233 
L 541.080456 297.080433 
L 541.357427 362.493568 
L 541.634398 236.500674 
L 541.911369 386.680204 
L 542.18834 386.67227 
L 542.742283 370.270623 
L 543.019254 386.659694 
L 543.850168 386.673877 
L 545.788966 386.698828 
L 546.065937 373.502679 
L 546.342908 380.879683 
L 546.619879 330.009812 
L 547.173822 375.203346 
L 547.450793 373.136871 
L 547.727764 380.921752 
L 548.004735 371.55149 
L 548.281706 386.67696 
L 548.558678 386.649827 
L 548.835649 380.970786 
L 549.11262 332.151046 
L 549.389591 357.807731 
L 550.220505 386.667203 
L 551.32839 386.667992 
L 551.605361 380.977925 
L 551.882332 380.931522 
L 552.159303 386.675865 
L 554.652044 386.682015 
L 555.482957 386.688884 
L 555.759929 380.938531 
L 556.0369 386.668683 
L 556.313871 386.663791 
L 556.590842 380.972122 
L 557.144784 359.797329 
L 557.421756 386.663895 
L 558.252669 386.681577 
L 558.52964 380.961639 
L 558.806612 386.671485 
L 560.191468 386.679072 
L 560.468439 380.92892 
L 560.74541 386.656171 
L 562.407237 386.662277 
L 562.684208 380.945774 
L 562.961179 380.965867 
L 563.238151 371.911613 
L 563.515122 371.982456 
L 563.792093 368.411108 
L 564.069064 386.667506 
L 565.730891 386.684314 
L 567.115747 386.675752 
L 568.777574 386.688974 
L 569.885459 386.653987 
L 570.16243 370.690107 
L 570.439401 371.85324 
L 570.716373 357.214128 
L 570.993344 363.468931 
L 571.547286 386.693381 
L 572.932142 386.674552 
L 576.532767 386.668709 
L 576.809739 335.94023 
L 577.08671 346.596779 
L 577.363681 386.681302 
L 577.640652 375.37885 
L 577.917623 386.669018 
L 578.748537 386.656576 
L 579.025508 367.659767 
L 579.302479 386.684814 
L 580.964306 386.662064 
L 581.518249 356.775173 
L 581.79522 360.033277 
L 582.072191 380.931248 
L 582.349162 386.681268 
L 583.457047 386.686914 
L 583.734018 380.937087 
L 584.01099 386.679382 
L 584.841903 386.669114 
L 586.50373 386.691686 
L 590.104356 386.679467 
L 590.381327 380.902451 
L 590.658298 386.662151 
L 591.489212 386.645559 
L 591.766183 375.604685 
L 592.043154 350.797678 
L 592.320125 358.940307 
L 592.597096 380.885529 
L 593.151039 380.956327 
L 593.42801 386.677738 
L 594.258923 386.665063 
L 594.812866 358.060819 
L 595.089837 386.673141 
L 595.366808 380.990542 
L 595.643779 292.08978 
L 595.920751 357.709098 
L 596.197722 380.998234 
L 596.474693 380.887667 
L 596.751664 386.68684 
L 597.028635 386.685978 
L 597.305606 380.984339 
L 597.582578 380.98164 
L 597.859549 339.713437 
L 598.967434 386.663699 
L 600.906232 386.689444 
L 601.183203 363.428081 
L 601.460174 381.019204 
L 601.737145 380.9605 
L 602.014117 386.669265 
L 603.952915 386.67166 
L 604.229886 372.671685 
L 604.506857 352.10048 
L 604.783828 376.115598 
L 605.0608 357.384969 
L 605.337771 380.180404 
L 605.614742 380.928391 
L 605.891713 368.970889 
L 606.168684 362.175176 
L 606.445656 359.166443 
L 606.722627 386.677236 
L 608.661425 386.673641 
L 609.76931 386.680879 
L 611.154166 386.684485 
L 611.431137 381.000053 
L 611.708108 386.649992 
L 613.092964 386.704478 
L 614.754791 386.680845 
L 616.416618 386.673731 
L 616.693589 381.027788 
L 616.970561 311.77989 
L 617.247532 386.698448 
L 618.078445 386.672753 
L 618.355417 374.482077 
L 618.632388 386.661229 
L 618.909359 374.839077 
L 619.18633 386.704732 
L 619.463301 386.683558 
L 619.740273 369.253749 
L 620.017244 386.687158 
L 623.340898 386.684583 
L 623.617869 380.910275 
L 623.89484 386.700416 
L 624.725754 386.67296 
L 625.002725 370.809249 
L 625.279696 386.675937 
L 625.556667 386.683409 
L 625.833639 380.964388 
L 626.11061 386.702161 
L 626.387581 380.921919 
L 626.664552 386.660861 
L 627.218495 386.686448 
L 627.495466 380.955803 
L 627.772437 386.681147 
L 628.60335 386.679035 
L 628.880322 345.560125 
L 629.157293 379.624253 
L 629.434264 386.690704 
L 630.265178 386.66178 
L 631.096091 386.675979 
L 631.373062 381.008389 
L 631.650034 386.681162 
L 631.927005 386.676269 
L 632.480947 358.505668 
L 633.034889 386.677136 
L 633.865803 386.686339 
L 634.142774 381.015123 
L 634.419745 386.660933 
L 635.52763 386.678722 
L 635.804601 380.974703 
L 636.081572 386.668838 
L 636.358544 380.987797 
L 636.635515 356.252494 
L 636.912486 386.663501 
L 637.189457 386.677548 
L 637.466428 380.954711 
L 637.7434 386.656631 
L 639.405227 386.665411 
L 640.23614 386.679042 
L 640.513111 380.978274 
L 641.067054 380.945313 
L 641.344025 386.661388 
L 642.174939 386.672519 
L 642.45191 362.07637 
L 642.728881 386.662921 
L 643.836766 386.651849 
L 644.113737 379.419973 
L 644.390708 380.96971 
L 644.667679 380.892565 
L 644.94465 300.564943 
L 645.221622 386.667623 
L 646.883449 386.676267 
L 647.437391 363.197712 
L 647.714362 386.668712 
L 651.86893 386.670887 
L 652.145901 380.934544 
L 652.422872 380.975934 
L 652.699844 386.693842 
L 652.976815 386.673713 
L 653.253786 380.972019 
L 653.530757 244.124739 
L 653.807728 380.903268 
L 654.0847 373.43369 
L 654.361671 370.587359 
L 654.638642 373.622425 
L 655.192584 386.673422 
L 656.023498 386.671825 
L 660.732008 386.667194 
L 661.008979 386.700608 
L 661.28595 381.000846 
L 661.562922 360.156333 
L 661.839893 369.8105 
L 662.116864 323.172322 
L 662.393835 359.348724 
L 662.947778 338.764588 
L 663.224749 317.246302 
L 663.50172 322.827857 
L 663.778691 360.666362 
L 664.055662 363.006851 
L 664.332633 344.228499 
L 664.609605 348.477548 
L 664.886576 380.137153 
L 665.163547 341.535697 
L 665.440518 321.384137 
L 665.717489 336.587382 
L 665.994461 380.942473 
L 666.271432 360.521286 
L 666.548403 386.669797 
L 666.825374 380.941155 
L 667.102345 386.657537 
L 667.379317 359.181301 
L 667.656288 370.524064 
L 667.933259 349.52162 
L 668.21023 377.823494 
L 668.487201 250.386741 
L 668.764172 380.93168 
L 669.041144 386.683224 
L 670.426 386.685237 
L 670.702971 380.971292 
L 670.979942 386.657078 
L 671.256913 374.062164 
L 671.533884 386.678582 
L 675.965423 386.67998 
L 676.242394 380.965374 
L 676.519366 380.997618 
L 676.796337 386.667042 
L 677.62725 386.669476 
L 677.904222 380.988308 
L 678.181193 386.653807 
L 680.119991 386.670378 
L 680.396962 380.975782 
L 681.504847 380.939865 
L 681.781818 386.666746 
L 683.997588 386.683981 
L 687.875184 386.64881 
L 688.429127 311.776594 
L 688.706098 361.660843 
L 688.983069 386.698829 
L 690.921867 386.688225 
L 693.414608 386.656004 
L 695.353406 386.690216 
L 695.630377 386.688153 
L 695.907349 366.631309 
L 696.18432 386.664599 
L 697.569176 386.667203 
L 699.231003 386.673751 
L 699.507974 380.961495 
L 699.784945 386.675786 
L 701.723744 386.662387 
L 702.000715 386.681366 
L 702.277686 360.454701 
L 702.554657 354.025745 
L 702.831628 353.426895 
L 703.1086 386.6962 
L 705.047398 386.660792 
L 705.324369 380.956512 
L 705.60134 363.91519 
L 705.878311 339.048065 
L 706.432254 368.787303 
L 706.709225 284.159212 
L 706.986196 369.397648 
L 707.263167 348.687259 
L 707.540138 340.94671 
L 707.81711 355.698158 
L 708.094081 336.56612 
L 708.371052 240.830069 
L 708.648023 314.936077 
L 708.924994 302.389593 
L 709.201966 248.178828 
L 709.478937 255.364396 
L 709.755908 217.24182 
L 710.032879 253.295192 
L 710.30985 306.995716 
L 710.586822 249.534096 
L 710.863793 338.09746 
L 711.140764 234.546535 
L 711.417735 251.186625 
L 711.694706 301.470214 
L 711.971677 211.057224 
L 712.248649 204.84287 
L 712.52562 182.824545 
L 712.802591 356.394407 
L 713.079562 306.827707 
L 713.356533 190.805267 
L 713.633505 252.357871 
L 713.910476 269.040909 
L 714.187447 294.840785 
L 714.464418 195.7712 
L 714.741389 232.332881 
L 715.018361 212.948055 
L 715.295332 305.57609 
L 715.572303 189.156355 
L 715.849274 177.571653 
L 716.126245 314.159114 
L 716.680188 205.136715 
L 716.957159 317.4947 
L 717.23413 327.337727 
L 717.511101 228.805495 
L 717.788072 321.997249 
L 718.065044 131.651194 
L 718.342015 241.982366 
L 718.618986 231.58671 
L 718.895957 281.622584 
L 719.172928 265.223433 
L 719.449899 274.240171 
L 720.003842 337.444678 
L 720.280813 235.317801 
L 720.557784 216.66243 
L 720.834755 311.979213 
L 721.111727 281.467958 
L 721.388698 318.171106 
L 721.665669 211.790463 
L 721.94264 252.831887 
L 722.219611 241.238678 
L 722.496583 251.86027 
L 722.773554 270.53627 
L 723.050525 275.062139 
L 723.327496 245.262026 
L 723.604467 254.396728 
L 723.881438 312.526441 
L 724.435381 246.445192 
L 724.989323 286.673348 
L 725.266294 280.955122 
L 725.543266 267.990594 
L 725.820237 177.517859 
L 726.097208 286.326798 
L 726.374179 313.951164 
L 726.65115 117.157686 
L 726.928122 360.259956 
L 727.205093 351.354226 
L 727.482064 154.700531 
L 727.759035 335.140725 
L 728.312977 162.03592 
L 728.589949 345.818861 
L 728.86692 292.843023 
L 729.143891 335.572718 
L 729.697833 248.575227 
L 729.974805 341.795464 
L 730.528747 286.353008 
L 730.805718 364.614811 
L 731.636632 260.314281 
L 731.913603 304.161123 
L 732.190574 305.858724 
L 732.467545 348.632691 
L 732.744516 278.856931 
L 733.021488 360.310798 
L 733.298459 354.816532 
L 733.57543 370.693434 
L 733.852401 322.958853 
L 734.129372 339.541192 
L 734.683315 380.958098 
L 734.960286 386.659795 
L 735.237257 380.932216 
L 735.514228 386.671663 
L 736.622113 386.672227 
L 737.176055 386.6822 
L 737.453027 374.627209 
L 737.729998 380.943608 
L 738.006969 372.627396 
L 738.28394 386.692067 
L 738.560911 386.666257 
L 738.837883 380.952304 
L 739.114854 386.659848 
L 740.222738 386.666666 
L 740.49971 380.97452 
L 740.776681 380.953707 
L 741.053652 386.677855 
L 744.654277 386.683829 
L 744.931249 356.359289 
L 745.20822 380.939757 
L 745.485191 386.667371 
L 747.70096 386.684778 
L 748.254903 363.590192 
L 748.531874 365.393358 
L 748.808845 348.912619 
L 749.085816 356.696387 
L 749.362788 333.683529 
L 749.639759 343.884318 
L 749.91673 313.26113 
L 750.193701 317.784942 
L 750.470672 352.473362 
L 751.024615 349.966379 
L 751.301586 342.552243 
L 751.578557 348.44006 
L 751.855528 343.61767 
L 752.132499 362.271043 
L 752.409471 338.789078 
L 752.686442 330.761473 
L 752.963413 354.370235 
L 753.240384 338.251153 
L 753.517355 189.237004 
L 753.794327 329.956812 
L 754.071298 296.674108 
L 754.348269 317.071577 
L 754.62524 308.430991 
L 755.179182 333.545945 
L 755.456154 342.252193 
L 755.733125 280.742683 
L 756.010096 347.005656 
L 756.287067 345.437032 
L 756.564038 364.942763 
L 756.84101 334.948586 
L 757.117981 346.993692 
L 757.394952 335.737511 
L 757.671923 340.397208 
L 757.948894 293.953134 
L 758.225866 313.80906 
L 758.502837 358.309731 
L 758.779808 336.213587 
L 759.056779 333.969183 
L 759.33375 352.686919 
L 759.610721 359.096494 
L 759.887693 329.271303 
L 760.164664 317.392136 
L 760.441635 317.394852 
L 760.718606 366.78013 
L 760.995577 359.155082 
L 761.272549 304.44652 
L 761.54952 300.943443 
L 761.826491 337.346533 
L 762.103462 329.981766 
L 762.380433 348.574627 
L 762.657405 345.471922 
L 762.934376 326.861357 
L 763.211347 364.893425 
L 763.488318 320.035895 
L 763.765289 360.232959 
L 763.765289 360.232959 
" style="fill:none;stroke:#1f77b4;stroke-linecap:square;stroke-width:1.5;"/>
   </g>
   <g id="patch_8">
    <path d="M 473.236364 400.189091 
L 473.236364 103.68 
" style="fill:none;stroke:#000000;stroke-linecap:square;stroke-linejoin:miter;stroke-width:0.8;"/>
   </g>
   <g id="patch_9">
    <path d="M 777.6 400.189091 
L 777.6 103.68 
" style="fill:none;stroke:#000000;stroke-linecap:square;stroke-linejoin:miter;stroke-width:0.8;"/>
   </g>
   <g id="patch_10">
    <path d="M 473.236364 400.189091 
L 777.6 400.189091 
" style="fill:none;stroke:#000000;stroke-linecap:square;stroke-linejoin:miter;stroke-width:0.8;"/>
   </g>
   <g id="patch_11">
    <path d="M 473.236364 103.68 
L 777.6 103.68 
" style="fill:none;stroke:#000000;stroke-linecap:square;stroke-linejoin:miter;stroke-width:0.8;"/>
   </g>
  </g>
  <g id="axes_3">
   <g id="patch_12">
    <path d="M 108 756 
L 412.363636 756 
L 412.363636 459.490909 
L 108 459.490909 
z
" style="fill:#ffffff;"/>
   </g>
   <g id="matplotlib.axis_5">
    <g id="xtick_13">
     <g id="line2d_26">
      <g>
       <use style="stroke:#000000;stroke-width:0.8;" x="121.834711" xlink:href="#md164f9a5d5" y="756"/>
      </g>
     </g>
     <g id="text_24">
      <!-- 0 -->
      <g transform="translate(118.653461 770.598437)scale(0.1 -0.1)">
       <use xlink:href="#DejaVuSans-48"/>
      </g>
     </g>
    </g>
    <g id="xtick_14">
     <g id="line2d_27">
      <g>
       <use style="stroke:#000000;stroke-width:0.8;" x="177.228948" xlink:href="#md164f9a5d5" y="756"/>
      </g>
     </g>
     <g id="text_25">
      <!-- 200 -->
      <g transform="translate(167.685198 770.598437)scale(0.1 -0.1)">
       <use xlink:href="#DejaVuSans-50"/>
       <use x="63.623047" xlink:href="#DejaVuSans-48"/>
       <use x="127.246094" xlink:href="#DejaVuSans-48"/>
      </g>
     </g>
    </g>
    <g id="xtick_15">
     <g id="line2d_28">
      <g>
       <use style="stroke:#000000;stroke-width:0.8;" x="232.623185" xlink:href="#md164f9a5d5" y="756"/>
      </g>
     </g>
     <g id="text_26">
      <!-- 400 -->
      <g transform="translate(223.079435 770.598437)scale(0.1 -0.1)">
       <use xlink:href="#DejaVuSans-52"/>
       <use x="63.623047" xlink:href="#DejaVuSans-48"/>
       <use x="127.246094" xlink:href="#DejaVuSans-48"/>
      </g>
     </g>
    </g>
    <g id="xtick_16">
     <g id="line2d_29">
      <g>
       <use style="stroke:#000000;stroke-width:0.8;" x="288.017422" xlink:href="#md164f9a5d5" y="756"/>
      </g>
     </g>
     <g id="text_27">
      <!-- 600 -->
      <g transform="translate(278.473672 770.598437)scale(0.1 -0.1)">
       <use xlink:href="#DejaVuSans-54"/>
       <use x="63.623047" xlink:href="#DejaVuSans-48"/>
       <use x="127.246094" xlink:href="#DejaVuSans-48"/>
      </g>
     </g>
    </g>
    <g id="xtick_17">
     <g id="line2d_30">
      <g>
       <use style="stroke:#000000;stroke-width:0.8;" x="343.41166" xlink:href="#md164f9a5d5" y="756"/>
      </g>
     </g>
     <g id="text_28">
      <!-- 800 -->
      <g transform="translate(333.86791 770.598437)scale(0.1 -0.1)">
       <use xlink:href="#DejaVuSans-56"/>
       <use x="63.623047" xlink:href="#DejaVuSans-48"/>
       <use x="127.246094" xlink:href="#DejaVuSans-48"/>
      </g>
     </g>
    </g>
    <g id="xtick_18">
     <g id="line2d_31">
      <g>
       <use style="stroke:#000000;stroke-width:0.8;" x="398.805897" xlink:href="#md164f9a5d5" y="756"/>
      </g>
     </g>
     <g id="text_29">
      <!-- 1000 -->
      <g transform="translate(386.080897 770.598437)scale(0.1 -0.1)">
       <use xlink:href="#DejaVuSans-49"/>
       <use x="63.623047" xlink:href="#DejaVuSans-48"/>
       <use x="127.246094" xlink:href="#DejaVuSans-48"/>
       <use x="190.869141" xlink:href="#DejaVuSans-48"/>
      </g>
     </g>
    </g>
   </g>
   <g id="matplotlib.axis_6">
    <g id="ytick_12">
     <g id="line2d_32">
      <g>
       <use style="stroke:#000000;stroke-width:0.8;" x="108" xlink:href="#m7efda19db3" y="728.947107"/>
      </g>
     </g>
     <g id="text_30">
      <!-- 0 -->
      <g transform="translate(94.6375 732.746326)scale(0.1 -0.1)">
       <use xlink:href="#DejaVuSans-48"/>
      </g>
     </g>
    </g>
    <g id="ytick_13">
     <g id="line2d_33">
      <g>
       <use style="stroke:#000000;stroke-width:0.8;" x="108" xlink:href="#m7efda19db3" y="695.050665"/>
      </g>
     </g>
     <g id="text_31">
      <!-- 20 -->
      <g transform="translate(88.275 698.849884)scale(0.1 -0.1)">
       <use xlink:href="#DejaVuSans-50"/>
       <use x="63.623047" xlink:href="#DejaVuSans-48"/>
      </g>
     </g>
    </g>
    <g id="ytick_14">
     <g id="line2d_34">
      <g>
       <use style="stroke:#000000;stroke-width:0.8;" x="108" xlink:href="#m7efda19db3" y="661.154223"/>
      </g>
     </g>
     <g id="text_32">
      <!-- 40 -->
      <g transform="translate(88.275 664.953442)scale(0.1 -0.1)">
       <use xlink:href="#DejaVuSans-52"/>
       <use x="63.623047" xlink:href="#DejaVuSans-48"/>
      </g>
     </g>
    </g>
    <g id="ytick_15">
     <g id="line2d_35">
      <g>
       <use style="stroke:#000000;stroke-width:0.8;" x="108" xlink:href="#m7efda19db3" y="627.257781"/>
      </g>
     </g>
     <g id="text_33">
      <!-- 60 -->
      <g transform="translate(88.275 631.056999)scale(0.1 -0.1)">
       <use xlink:href="#DejaVuSans-54"/>
       <use x="63.623047" xlink:href="#DejaVuSans-48"/>
      </g>
     </g>
    </g>
    <g id="ytick_16">
     <g id="line2d_36">
      <g>
       <use style="stroke:#000000;stroke-width:0.8;" x="108" xlink:href="#m7efda19db3" y="593.361338"/>
      </g>
     </g>
     <g id="text_34">
      <!-- 80 -->
      <g transform="translate(88.275 597.160557)scale(0.1 -0.1)">
       <use xlink:href="#DejaVuSans-56"/>
       <use x="63.623047" xlink:href="#DejaVuSans-48"/>
      </g>
     </g>
    </g>
    <g id="ytick_17">
     <g id="line2d_37">
      <g>
       <use style="stroke:#000000;stroke-width:0.8;" x="108" xlink:href="#m7efda19db3" y="559.464896"/>
      </g>
     </g>
     <g id="text_35">
      <!-- 100 -->
      <g transform="translate(81.9125 563.264115)scale(0.1 -0.1)">
       <use xlink:href="#DejaVuSans-49"/>
       <use x="63.623047" xlink:href="#DejaVuSans-48"/>
       <use x="127.246094" xlink:href="#DejaVuSans-48"/>
      </g>
     </g>
    </g>
    <g id="ytick_18">
     <g id="line2d_38">
      <g>
       <use style="stroke:#000000;stroke-width:0.8;" x="108" xlink:href="#m7efda19db3" y="525.568454"/>
      </g>
     </g>
     <g id="text_36">
      <!-- 120 -->
      <g transform="translate(81.9125 529.367673)scale(0.1 -0.1)">
       <use xlink:href="#DejaVuSans-49"/>
       <use x="63.623047" xlink:href="#DejaVuSans-50"/>
       <use x="127.246094" xlink:href="#DejaVuSans-48"/>
      </g>
     </g>
    </g>
    <g id="ytick_19">
     <g id="line2d_39">
      <g>
       <use style="stroke:#000000;stroke-width:0.8;" x="108" xlink:href="#m7efda19db3" y="491.672012"/>
      </g>
     </g>
     <g id="text_37">
      <!-- 140 -->
      <g transform="translate(81.9125 495.471231)scale(0.1 -0.1)">
       <use xlink:href="#DejaVuSans-49"/>
       <use x="63.623047" xlink:href="#DejaVuSans-52"/>
       <use x="127.246094" xlink:href="#DejaVuSans-48"/>
      </g>
     </g>
    </g>
   </g>
   <g id="line2d_40">
    <path clip-path="url(#p7295a7de42)" d="M 121.834711 728.954022 
L 122.111682 724.819466 
L 122.388653 724.011269 
L 122.665624 718.671047 
L 122.942595 727.274833 
L 123.496538 722.997253 
L 123.773509 727.249736 
L 124.05048 728.943244 
L 124.327451 728.954537 
L 124.604423 723.455279 
L 124.881394 728.950715 
L 127.374134 728.951701 
L 127.651106 727.245647 
L 127.928077 728.947664 
L 128.482019 728.945936 
L 128.75899 709.832166 
L 129.035962 724.159734 
L 129.312933 728.952027 
L 129.866875 728.953114 
L 130.143846 727.246423 
L 130.420818 728.947433 
L 130.97476 728.942208 
L 131.251731 727.251974 
L 131.528702 720.977929 
L 131.805673 718.179505 
L 132.082645 728.945599 
L 133.190529 728.947623 
L 133.467501 724.558398 
L 133.744472 725.370516 
L 134.021443 728.947458 
L 135.406299 728.947226 
L 135.68327 727.24731 
L 135.960241 728.952711 
L 138.176011 728.942601 
L 139.837838 728.949391 
L 140.114809 724.13656 
L 140.39178 727.240308 
L 140.668751 728.948206 
L 142.330579 728.946457 
L 142.60755 727.259477 
L 142.884521 708.820503 
L 143.161492 718.186001 
L 143.438463 719.787011 
L 143.715434 728.945141 
L 145.931204 728.945741 
L 146.208175 723.415321 
L 146.485146 728.948867 
L 146.762117 727.275414 
L 147.039089 717.878816 
L 147.31606 719.82705 
L 147.593031 728.946947 
L 148.146973 728.951331 
L 148.423945 723.409259 
L 148.977887 724.450002 
L 149.254858 723.753494 
L 149.531829 728.93943 
L 150.639714 728.946257 
L 150.916685 724.046356 
L 151.193656 728.948973 
L 156.73308 728.948709 
L 157.010051 693.649811 
L 157.287023 718.163578 
L 157.563994 718.234217 
L 157.840965 725.428635 
L 158.117936 723.314819 
L 158.394907 723.793526 
L 158.671878 725.096952 
L 158.94885 725.461407 
L 159.225821 728.946582 
L 159.779763 728.947098 
L 160.056734 719.213331 
L 160.333706 719.218463 
L 160.610677 718.560384 
L 161.164619 728.942312 
L 161.995533 728.951812 
L 162.272504 717.429055 
L 162.549475 719.504235 
L 162.826446 727.25452 
L 163.103417 728.941569 
L 164.765245 728.954066 
L 165.042216 724.500863 
L 165.319187 714.056258 
L 165.596158 721.719386 
L 166.150101 727.244966 
L 166.427072 724.376411 
L 166.704043 728.948845 
L 167.257985 718.816507 
L 167.534956 706.341046 
L 167.811928 725.459182 
L 168.088899 712.728318 
L 168.36587 727.253436 
L 168.642841 728.945322 
L 168.919812 728.944211 
L 169.196784 727.238342 
L 169.473755 728.952692 
L 169.750726 728.948382 
L 170.027697 727.25953 
L 170.304668 728.948248 
L 170.581639 725.477425 
L 170.858611 720.118682 
L 171.135582 727.25708 
L 171.689524 727.263557 
L 171.966495 728.946608 
L 172.797409 728.947271 
L 173.07438 727.255465 
L 173.351351 727.251979 
L 173.628323 724.655015 
L 173.905294 728.941418 
L 175.013178 728.941168 
L 175.29015 706.993963 
L 175.567121 728.943757 
L 177.228948 728.946056 
L 177.505919 723.206928 
L 177.78289 722.32196 
L 178.059862 728.945218 
L 178.336833 708.048265 
L 178.613804 728.945127 
L 178.890775 728.945256 
L 179.167746 727.251411 
L 179.444717 711.983162 
L 179.721689 728.949385 
L 181.106545 728.949147 
L 181.383516 727.262838 
L 181.660487 724.871305 
L 181.937458 719.910581 
L 182.214429 718.33979 
L 182.4914 681.663209 
L 182.768372 723.574129 
L 183.045343 723.679649 
L 183.322314 724.468151 
L 183.599285 727.900267 
L 183.876256 723.134587 
L 184.153228 725.36918 
L 184.430199 728.948944 
L 184.70717 716.868694 
L 184.984141 728.949522 
L 185.815055 728.943781 
L 186.092026 727.248631 
L 186.368997 728.948968 
L 186.645968 727.247554 
L 186.922939 728.948538 
L 191.63145 728.945564 
L 191.908421 727.238592 
L 192.185392 727.252106 
L 192.462363 714.871352 
L 192.739334 714.596081 
L 193.016306 718.369579 
L 193.293277 719.66896 
L 193.570248 716.67722 
L 193.847219 728.972634 
L 194.401161 699.126689 
L 194.678133 704.775815 
L 194.955104 702.13182 
L 195.232075 715.474165 
L 195.509046 704.999083 
L 195.786017 661.325388 
L 196.062989 709.299538 
L 196.616931 717.543257 
L 196.893902 653.867371 
L 197.170873 695.370889 
L 197.447845 701.387088 
L 197.724816 698.461544 
L 198.001787 700.840325 
L 198.278758 715.851975 
L 198.555729 703.686555 
L 198.8327 701.5257 
L 199.109672 672.542725 
L 199.386643 723.028482 
L 199.663614 723.492973 
L 200.217556 692.423746 
L 200.771499 710.639064 
L 201.04847 700.168523 
L 201.325441 705.620232 
L 201.602412 704.623449 
L 201.879384 713.065173 
L 202.156355 633.531749 
L 202.433326 701.167068 
L 202.710297 697.545535 
L 202.987268 696.561973 
L 203.264239 700.135151 
L 203.541211 732.74164 
L 203.818182 701.202635 
L 204.095153 687.042047 
L 204.372124 716.23131 
L 204.649095 712.719079 
L 204.926067 679.791576 
L 205.203038 702.195343 
L 205.480009 684.38984 
L 205.75698 704.445705 
L 206.033951 689.954224 
L 206.310922 682.70183 
L 206.587894 691.493712 
L 206.864865 685.540956 
L 207.141836 677.187527 
L 207.418807 686.957281 
L 207.695778 713.858237 
L 207.97275 682.638273 
L 208.249721 685.838241 
L 208.526692 684.385061 
L 208.803663 673.747801 
L 209.080634 669.352734 
L 209.357606 685.640781 
L 209.634577 686.32403 
L 209.911548 679.675714 
L 210.188519 700.333744 
L 210.46549 702.674376 
L 210.742461 679.68102 
L 211.019433 691.241798 
L 211.296404 686.378705 
L 211.573375 709.940685 
L 211.850346 669.385528 
L 212.127317 694.903977 
L 212.404289 706.82068 
L 212.68126 700.987916 
L 212.958231 713.822228 
L 213.235202 706.541054 
L 213.512173 695.356669 
L 213.789145 703.522516 
L 214.066116 683.087041 
L 214.343087 713.181978 
L 214.620058 708.162589 
L 214.897029 697.231523 
L 215.174 723.813992 
L 215.450972 704.754201 
L 215.727943 701.868399 
L 216.004914 703.517744 
L 216.281885 716.924443 
L 216.558856 709.382022 
L 216.835828 694.930164 
L 217.112799 662.51564 
L 217.38977 714.186561 
L 217.666741 722.437746 
L 217.943712 717.538837 
L 218.220683 723.352743 
L 219.051597 690.697509 
L 219.328568 714.468519 
L 219.605539 699.717122 
L 219.882511 715.495443 
L 220.159482 649.550577 
L 220.436453 711.722774 
L 220.713424 702.905644 
L 221.267367 727.104861 
L 221.544338 693.806365 
L 222.09828 706.480302 
L 222.375251 696.277479 
L 222.652222 710.043838 
L 222.929194 709.598928 
L 223.206165 700.050577 
L 223.483136 708.182027 
L 223.760107 705.247553 
L 224.037078 708.024737 
L 224.31405 697.025767 
L 224.591021 720.875138 
L 224.867992 710.086842 
L 225.144963 692.165973 
L 225.421934 688.472769 
L 225.698906 700.126358 
L 225.975877 703.46972 
L 226.252848 709.991982 
L 226.529819 713.26734 
L 226.80679 691.485731 
L 227.083761 604.560271 
L 227.360733 683.056531 
L 227.637704 678.39093 
L 227.914675 513.155368 
L 228.191646 679.746752 
L 228.468617 658.884943 
L 229.02256 682.604478 
L 229.299531 658.324498 
L 229.576502 677.260948 
L 229.853473 658.228041 
L 230.130444 684.973763 
L 230.407416 661.33886 
L 230.684387 694.936436 
L 230.961358 620.975421 
L 231.238329 678.43642 
L 231.5153 704.028049 
L 231.792272 708.63444 
L 232.069243 683.606753 
L 232.346214 705.288876 
L 232.623185 663.803753 
L 232.900156 677.103027 
L 233.177128 701.059055 
L 234.008041 677.895368 
L 234.285012 697.239165 
L 234.561983 662.923368 
L 234.838955 698.177725 
L 235.392897 683.290346 
L 235.669868 713.454535 
L 235.946839 686.855129 
L 236.500782 710.044374 
L 237.054724 664.560077 
L 237.331695 695.549233 
L 237.885638 680.934382 
L 238.162609 681.733895 
L 238.43958 681.167376 
L 238.716551 700.644093 
L 238.993522 669.437786 
L 239.270494 681.632835 
L 239.547465 680.362972 
L 239.824436 671.25341 
L 240.101407 678.111007 
L 240.378378 725.58279 
L 240.65535 690.942006 
L 240.932321 626.711181 
L 241.209292 684.712098 
L 241.486263 687.303849 
L 241.763234 698.687373 
L 242.040205 697.242068 
L 242.317177 694.48878 
L 242.594148 685.85773 
L 242.871119 707.58414 
L 243.14809 682.834209 
L 243.425061 699.344847 
L 243.702033 702.579062 
L 243.979004 689.657494 
L 244.255975 684.691149 
L 244.532946 677.02157 
L 245.086889 693.56106 
L 245.36386 676.488203 
L 245.917802 668.933169 
L 246.194773 671.932412 
L 246.748716 708.915466 
L 247.302658 656.290933 
L 247.579629 705.599807 
L 247.8566 633.159447 
L 248.133572 710.67638 
L 248.410543 663.235176 
L 248.687514 691.333248 
L 249.241456 709.600927 
L 249.518428 686.574851 
L 249.795399 698.971778 
L 250.07237 695.107694 
L 250.626312 677.929891 
L 250.903283 720.51514 
L 251.180255 679.757134 
L 251.457226 702.694842 
L 251.734197 653.805391 
L 252.011168 694.953118 
L 252.288139 651.531817 
L 252.565111 698.228675 
L 252.842082 665.959906 
L 253.396024 696.74689 
L 253.672995 671.731215 
L 253.949966 675.472002 
L 254.226938 683.709911 
L 254.503909 684.208011 
L 254.78088 696.852036 
L 255.057851 692.556431 
L 255.334822 694.443715 
L 255.611794 694.724888 
L 255.888765 708.97719 
L 256.165736 715.565294 
L 256.442707 703.515586 
L 256.719678 716.935504 
L 256.99665 701.297369 
L 257.273621 712.395604 
L 257.550592 693.642659 
L 257.827563 712.478129 
L 258.104534 688.707691 
L 258.381505 690.325114 
L 258.658477 700.90692 
L 258.935448 677.295558 
L 259.212419 678.598362 
L 259.48939 668.159079 
L 259.766361 707.796338 
L 260.043333 685.53234 
L 260.320304 699.020935 
L 260.597275 688.357559 
L 260.874246 686.114724 
L 261.151217 698.206407 
L 261.428189 681.643351 
L 261.70516 742.522314 
L 261.982131 683.307623 
L 262.259102 722.370045 
L 262.536073 696.282927 
L 262.813044 695.772971 
L 263.090016 688.528281 
L 263.366987 699.899865 
L 263.643958 683.852052 
L 263.920929 679.698447 
L 264.1979 687.797466 
L 264.474872 668.224684 
L 265.028814 714.515805 
L 265.582756 695.110205 
L 265.859727 692.501458 
L 266.136699 719.212389 
L 266.41367 702.506553 
L 266.690641 693.489611 
L 266.967612 709.969759 
L 267.244583 684.259491 
L 267.521555 684.294862 
L 267.798526 687.976624 
L 268.075497 698.895421 
L 268.352468 684.055269 
L 268.906411 702.07102 
L 269.183382 684.119323 
L 269.460353 716.963528 
L 270.014295 699.960222 
L 270.291266 706.74292 
L 270.568238 708.65157 
L 270.845209 703.709971 
L 271.12218 676.043199 
L 271.399151 706.76351 
L 271.676122 707.022644 
L 271.953094 693.472022 
L 272.230065 709.356848 
L 272.784007 714.069039 
L 273.060978 706.172116 
L 273.891892 716.12734 
L 274.168863 704.468694 
L 274.445834 706.823978 
L 274.722805 706.923144 
L 274.999777 685.535812 
L 275.276748 716.436182 
L 275.553719 673.334548 
L 275.83069 709.478341 
L 276.107661 690.180514 
L 276.384633 715.106152 
L 276.661604 692.204628 
L 277.215546 724.48516 
L 277.492517 706.378409 
L 277.769488 716.920381 
L 278.04646 693.444899 
L 278.323431 692.870775 
L 278.600402 697.216212 
L 278.877373 707.338834 
L 279.154344 697.935236 
L 279.431316 716.604755 
L 279.708287 694.248184 
L 279.985258 688.179605 
L 280.262229 690.317688 
L 280.5392 693.446631 
L 280.816172 709.186963 
L 281.093143 684.272438 
L 281.370114 693.290075 
L 281.647085 684.56387 
L 281.924056 697.515908 
L 282.201027 694.035893 
L 282.477999 709.156406 
L 282.75497 700.549163 
L 283.031941 706.82277 
L 283.308912 700.812562 
L 283.862855 710.213675 
L 284.139826 712.424989 
L 284.416797 696.463081 
L 284.693768 692.670577 
L 284.970739 708.703871 
L 285.247711 671.161071 
L 285.524682 722.77799 
L 285.801653 711.237787 
L 286.078624 705.342548 
L 286.355595 712.772947 
L 286.632566 705.429232 
L 286.909538 708.174625 
L 287.186509 698.224185 
L 287.46348 719.177045 
L 287.740451 714.012396 
L 288.017422 715.572691 
L 288.294394 720.341264 
L 288.571365 719.840273 
L 288.848336 708.558714 
L 289.125307 707.820609 
L 289.402278 701.397136 
L 289.679249 706.963281 
L 289.956221 699.39303 
L 290.233192 724.34729 
L 290.510163 718.118626 
L 290.787134 716.70967 
L 291.341077 727.24918 
L 291.618048 728.953052 
L 293.002904 728.948571 
L 293.279875 727.258873 
L 293.556846 728.942612 
L 294.110788 728.946714 
L 294.38776 733.281542 
L 294.664731 717.166426 
L 294.941702 723.807935 
L 295.218673 727.252458 
L 295.495644 728.942584 
L 296.049587 728.954713 
L 296.603529 725.928402 
L 296.8805 720.006907 
L 297.157472 728.943728 
L 297.434443 728.945307 
L 297.711414 727.251505 
L 297.988385 728.950699 
L 299.09627 728.946849 
L 299.373241 727.253283 
L 299.650212 728.947389 
L 302.696895 728.945096 
L 302.973866 724.163174 
L 303.250838 727.241551 
L 303.527809 728.944745 
L 303.80478 728.950081 
L 304.081751 725.510684 
L 304.358722 728.943094 
L 304.635694 728.938745 
L 304.912665 727.238285 
L 305.189636 719.317576 
L 305.466607 724.58536 
L 305.743578 725.503781 
L 306.020549 721.280879 
L 306.574492 727.246863 
L 306.851463 728.946257 
L 309.898146 728.94684 
L 310.452088 725.795486 
L 310.72906 728.949526 
L 311.006031 727.260797 
L 311.283002 711.641617 
L 311.559973 724.842392 
L 311.836944 721.034418 
L 312.113916 725.553809 
L 312.390887 703.605779 
L 312.944829 721.063195 
L 313.2218 714.464087 
L 313.498771 663.426047 
L 313.775743 698.256682 
L 314.052714 700.454177 
L 314.329685 712.927105 
L 314.606656 650.465619 
L 314.883627 701.856047 
L 315.160599 702.981874 
L 315.43757 691.641522 
L 315.714541 719.730937 
L 316.268483 702.713662 
L 316.545455 702.011905 
L 316.822426 699.274201 
L 317.099397 702.264734 
L 317.376368 698.285053 
L 317.653339 703.381122 
L 317.93031 668.810477 
L 318.207282 693.42876 
L 318.484253 679.959681 
L 318.761224 688.732988 
L 319.038195 678.46977 
L 319.315166 696.62154 
L 319.592138 705.349085 
L 319.869109 691.942697 
L 320.14608 689.076141 
L 320.700022 691.782607 
L 321.253965 714.471013 
L 321.530936 717.486077 
L 321.807907 713.0726 
L 322.084878 703.131326 
L 322.361849 717.52666 
L 322.915792 667.114049 
L 323.192763 715.96868 
L 323.469734 714.866163 
L 323.746705 705.175424 
L 324.023677 702.693745 
L 324.300648 709.514292 
L 324.577619 699.973377 
L 324.85459 706.353446 
L 325.131561 697.342973 
L 325.408532 713.710583 
L 325.685504 697.402546 
L 325.962475 713.196773 
L 326.239446 682.288428 
L 326.516417 696.072828 
L 326.793388 676.531859 
L 327.07036 697.185507 
L 327.347331 690.364425 
L 327.624302 701.58016 
L 327.901273 691.857578 
L 328.178244 674.97111 
L 328.455216 705.217996 
L 328.732187 704.500726 
L 329.009158 694.286641 
L 329.286129 714.475932 
L 329.840071 697.014485 
L 330.394014 715.564895 
L 330.670985 702.237019 
L 330.947956 645.094459 
L 331.224927 711.89591 
L 331.501899 715.514221 
L 331.77887 721.535197 
L 332.055841 717.652213 
L 332.332812 699.039216 
L 332.609783 716.671448 
L 332.886755 708.254151 
L 333.163726 703.893939 
L 333.440697 712.621847 
L 333.717668 708.042152 
L 333.994639 707.237504 
L 334.27161 714.787265 
L 334.548582 700.146843 
L 334.825553 710.420029 
L 335.102524 708.011007 
L 335.379495 702.0416 
L 335.656466 720.095948 
L 336.210409 696.841969 
L 336.48738 701.51951 
L 336.764351 711.445372 
L 337.318294 705.479422 
L 337.595265 708.823116 
L 337.872236 697.772448 
L 338.149207 677.680773 
L 338.426178 672.175873 
L 338.703149 694.420207 
L 338.980121 706.138659 
L 339.257092 668.616846 
L 339.534063 671.913793 
L 339.811034 707.881221 
L 340.088005 692.469641 
L 340.364977 668.712677 
L 340.641948 713.058203 
L 341.19589 700.456486 
L 341.472861 703.524733 
L 341.749832 718.094238 
L 342.026804 682.902705 
L 342.303775 708.758619 
L 342.580746 703.032143 
L 342.857717 715.510304 
L 343.41166 712.53978 
L 343.688631 717.995143 
L 343.965602 719.762685 
L 344.242573 708.139737 
L 344.519544 719.520244 
L 345.073487 707.374446 
L 345.627429 722.289968 
L 345.9044 714.716846 
L 346.458343 725.292106 
L 346.735314 719.981204 
L 347.012285 712.450871 
L 347.289256 625.022528 
L 347.566227 667.438735 
L 347.843199 637.295101 
L 348.12017 637.073253 
L 348.397141 669.81692 
L 348.674112 583.826733 
L 348.951083 644.985078 
L 349.228055 645.933356 
L 349.505026 670.092584 
L 349.781997 604.562464 
L 350.335939 646.867784 
L 350.61291 637.907024 
L 350.889882 617.482865 
L 351.166853 708.682255 
L 351.443824 652.513267 
L 351.720795 699.558395 
L 351.997766 679.148441 
L 352.274738 685.548773 
L 352.551709 667.647387 
L 352.82868 689.302913 
L 353.105651 694.69853 
L 353.382622 713.225597 
L 353.659593 668.21312 
L 353.936565 697.131998 
L 354.213536 697.199218 
L 354.490507 690.366295 
L 354.767478 677.962178 
L 355.044449 680.801659 
L 355.321421 693.024546 
L 355.598392 652.904959 
L 355.875363 671.850002 
L 356.152334 680.304544 
L 356.429305 659.682733 
L 356.706277 657.970722 
L 356.983248 651.327507 
L 357.260219 652.354952 
L 357.814161 695.171152 
L 358.091132 685.256742 
L 358.645075 619.788089 
L 358.922046 598.873164 
L 359.199017 652.112297 
L 359.475988 641.652274 
L 359.75296 671.53599 
L 360.029931 626.632576 
L 360.306902 627.666593 
L 360.583873 623.09718 
L 360.860844 663.497498 
L 361.137816 655.999062 
L 361.414787 683.730495 
L 361.691758 645.44286 
L 361.968729 679.847071 
L 362.2457 672.757906 
L 362.522671 672.829283 
L 362.799643 642.683624 
L 363.076614 679.856174 
L 363.353585 664.33383 
L 363.630556 666.578433 
L 363.907527 700.091154 
L 364.184499 631.709854 
L 364.738441 682.761258 
L 365.015412 674.576466 
L 365.292383 693.541023 
L 365.569354 683.842386 
L 365.846326 688.805269 
L 366.123297 646.89918 
L 366.400268 668.214504 
L 366.677239 704.300349 
L 366.95421 672.19872 
L 367.231182 689.129475 
L 367.508153 684.191673 
L 367.785124 702.455867 
L 368.062095 692.333035 
L 368.339066 696.22557 
L 368.893009 690.572202 
L 369.16998 651.701831 
L 369.446951 680.41242 
L 369.723922 693.541002 
L 370.000893 650.099736 
L 370.277865 703.86498 
L 370.554836 666.633593 
L 370.831807 674.375329 
L 371.385749 695.353525 
L 371.662721 677.867712 
L 371.939692 669.473767 
L 372.216663 675.06869 
L 372.493634 655.961939 
L 372.770605 686.228069 
L 373.047577 656.111103 
L 373.324548 681.7884 
L 373.601519 681.123284 
L 373.87849 671.063355 
L 374.155461 698.423819 
L 374.709404 649.481511 
L 374.986375 716.630733 
L 375.263346 569.411536 
L 375.540317 692.205335 
L 375.817288 677.919906 
L 376.09426 681.217544 
L 376.371231 690.381105 
L 376.648202 684.478719 
L 376.925173 690.997897 
L 377.202144 678.403146 
L 377.479115 539.128109 
L 377.756087 662.438208 
L 378.033058 534.656528 
L 378.310029 637.519939 
L 378.587 623.733797 
L 378.863971 645.683811 
L 379.140943 646.801859 
L 379.417914 654.374941 
L 379.694885 654.014433 
L 379.971856 639.109608 
L 380.248827 650.149989 
L 380.525799 683.935502 
L 380.80277 658.208556 
L 381.079741 598.615304 
L 381.356712 645.891086 
L 381.633683 651.923548 
L 381.910654 654.472551 
L 382.187626 660.957706 
L 382.464597 683.730587 
L 382.741568 617.915222 
L 383.018539 513.276076 
L 383.572482 599.736012 
L 383.849453 628.478664 
L 384.126424 620.409917 
L 384.403395 630.322601 
L 384.680366 630.557628 
L 384.957338 655.705656 
L 385.234309 613.94289 
L 385.51128 552.404738 
L 385.788251 580.782619 
L 386.065222 594.456278 
L 386.342193 648.784276 
L 386.619165 619.031972 
L 386.896136 635.770333 
L 387.450078 472.968595 
L 388.004021 656.87752 
L 388.280992 590.222231 
L 388.557963 582.386849 
L 388.834934 633.519624 
L 389.111905 594.334192 
L 389.388876 644.059315 
L 389.665848 589.26216 
L 389.942819 593.105176 
L 390.21979 619.579497 
L 390.496761 631.276361 
L 390.773732 552.966303 
L 391.050704 710.243336 
L 391.881617 605.72623 
L 392.158588 683.009386 
L 392.43556 658.543087 
L 392.712531 688.855272 
L 392.989502 639.414614 
L 393.543444 600.393332 
L 393.820415 678.664697 
L 394.097387 680.974599 
L 394.374358 668.599841 
L 394.651329 631.578186 
L 395.482243 702.393431 
L 395.759214 698.431933 
L 396.036185 690.702666 
L 396.313156 716.132817 
L 396.867099 674.388069 
L 397.14407 670.936168 
L 397.421041 686.623395 
L 397.974983 696.389326 
L 398.251954 667.857696 
L 398.528926 676.034904 
L 398.528926 676.034904 
" style="fill:none;stroke:#1f77b4;stroke-linecap:square;stroke-width:1.5;"/>
   </g>
   <g id="patch_13">
    <path d="M 108 756 
L 108 459.490909 
" style="fill:none;stroke:#000000;stroke-linecap:square;stroke-linejoin:miter;stroke-width:0.8;"/>
   </g>
   <g id="patch_14">
    <path d="M 412.363636 756 
L 412.363636 459.490909 
" style="fill:none;stroke:#000000;stroke-linecap:square;stroke-linejoin:miter;stroke-width:0.8;"/>
   </g>
   <g id="patch_15">
    <path d="M 108 756 
L 412.363636 756 
" style="fill:none;stroke:#000000;stroke-linecap:square;stroke-linejoin:miter;stroke-width:0.8;"/>
   </g>
   <g id="patch_16">
    <path d="M 108 459.490909 
L 412.363636 459.490909 
" style="fill:none;stroke:#000000;stroke-linecap:square;stroke-linejoin:miter;stroke-width:0.8;"/>
   </g>
  </g>
  <g id="axes_4">
   <g id="patch_17">
    <path d="M 473.236364 756 
L 777.6 756 
L 777.6 459.490909 
L 473.236364 459.490909 
z
" style="fill:#ffffff;"/>
   </g>
   <g id="matplotlib.axis_7">
    <g id="xtick_19">
     <g id="line2d_41">
      <g>
       <use style="stroke:#000000;stroke-width:0.8;" x="487.071074" xlink:href="#md164f9a5d5" y="756"/>
      </g>
     </g>
     <g id="text_38">
      <!-- 0 -->
      <g transform="translate(483.889824 770.598437)scale(0.1 -0.1)">
       <use xlink:href="#DejaVuSans-48"/>
      </g>
     </g>
    </g>
    <g id="xtick_20">
     <g id="line2d_42">
      <g>
       <use style="stroke:#000000;stroke-width:0.8;" x="542.465312" xlink:href="#md164f9a5d5" y="756"/>
      </g>
     </g>
     <g id="text_39">
      <!-- 200 -->
      <g transform="translate(532.921562 770.598437)scale(0.1 -0.1)">
       <use xlink:href="#DejaVuSans-50"/>
       <use x="63.623047" xlink:href="#DejaVuSans-48"/>
       <use x="127.246094" xlink:href="#DejaVuSans-48"/>
      </g>
     </g>
    </g>
    <g id="xtick_21">
     <g id="line2d_43">
      <g>
       <use style="stroke:#000000;stroke-width:0.8;" x="597.859549" xlink:href="#md164f9a5d5" y="756"/>
      </g>
     </g>
     <g id="text_40">
      <!-- 400 -->
      <g transform="translate(588.315799 770.598437)scale(0.1 -0.1)">
       <use xlink:href="#DejaVuSans-52"/>
       <use x="63.623047" xlink:href="#DejaVuSans-48"/>
       <use x="127.246094" xlink:href="#DejaVuSans-48"/>
      </g>
     </g>
    </g>
    <g id="xtick_22">
     <g id="line2d_44">
      <g>
       <use style="stroke:#000000;stroke-width:0.8;" x="653.253786" xlink:href="#md164f9a5d5" y="756"/>
      </g>
     </g>
     <g id="text_41">
      <!-- 600 -->
      <g transform="translate(643.710036 770.598437)scale(0.1 -0.1)">
       <use xlink:href="#DejaVuSans-54"/>
       <use x="63.623047" xlink:href="#DejaVuSans-48"/>
       <use x="127.246094" xlink:href="#DejaVuSans-48"/>
      </g>
     </g>
    </g>
    <g id="xtick_23">
     <g id="line2d_45">
      <g>
       <use style="stroke:#000000;stroke-width:0.8;" x="708.648023" xlink:href="#md164f9a5d5" y="756"/>
      </g>
     </g>
     <g id="text_42">
      <!-- 800 -->
      <g transform="translate(699.104273 770.598437)scale(0.1 -0.1)">
       <use xlink:href="#DejaVuSans-56"/>
       <use x="63.623047" xlink:href="#DejaVuSans-48"/>
       <use x="127.246094" xlink:href="#DejaVuSans-48"/>
      </g>
     </g>
    </g>
    <g id="xtick_24">
     <g id="line2d_46">
      <g>
       <use style="stroke:#000000;stroke-width:0.8;" x="764.04226" xlink:href="#md164f9a5d5" y="756"/>
      </g>
     </g>
     <g id="text_43">
      <!-- 1000 -->
      <g transform="translate(751.31726 770.598437)scale(0.1 -0.1)">
       <use xlink:href="#DejaVuSans-49"/>
       <use x="63.623047" xlink:href="#DejaVuSans-48"/>
       <use x="127.246094" xlink:href="#DejaVuSans-48"/>
       <use x="190.869141" xlink:href="#DejaVuSans-48"/>
      </g>
     </g>
    </g>
   </g>
   <g id="matplotlib.axis_8">
    <g id="ytick_20">
     <g id="line2d_47">
      <g>
       <use style="stroke:#000000;stroke-width:0.8;" x="473.236364" xlink:href="#m7efda19db3" y="742.514102"/>
      </g>
     </g>
     <g id="text_44">
      <!-- 0 -->
      <g transform="translate(459.873864 746.313321)scale(0.1 -0.1)">
       <use xlink:href="#DejaVuSans-48"/>
      </g>
     </g>
    </g>
    <g id="ytick_21">
     <g id="line2d_48">
      <g>
       <use style="stroke:#000000;stroke-width:0.8;" x="473.236364" xlink:href="#m7efda19db3" y="677.498403"/>
      </g>
     </g>
     <g id="text_45">
      <!-- 50 -->
      <g transform="translate(453.511364 681.297622)scale(0.1 -0.1)">
       <use xlink:href="#DejaVuSans-53"/>
       <use x="63.623047" xlink:href="#DejaVuSans-48"/>
      </g>
     </g>
    </g>
    <g id="ytick_22">
     <g id="line2d_49">
      <g>
       <use style="stroke:#000000;stroke-width:0.8;" x="473.236364" xlink:href="#m7efda19db3" y="612.482704"/>
      </g>
     </g>
     <g id="text_46">
      <!-- 100 -->
      <g transform="translate(447.148864 616.281923)scale(0.1 -0.1)">
       <use xlink:href="#DejaVuSans-49"/>
       <use x="63.623047" xlink:href="#DejaVuSans-48"/>
       <use x="127.246094" xlink:href="#DejaVuSans-48"/>
      </g>
     </g>
    </g>
    <g id="ytick_23">
     <g id="line2d_50">
      <g>
       <use style="stroke:#000000;stroke-width:0.8;" x="473.236364" xlink:href="#m7efda19db3" y="547.467005"/>
      </g>
     </g>
     <g id="text_47">
      <!-- 150 -->
      <g transform="translate(447.148864 551.266223)scale(0.1 -0.1)">
       <use xlink:href="#DejaVuSans-49"/>
       <use x="63.623047" xlink:href="#DejaVuSans-53"/>
       <use x="127.246094" xlink:href="#DejaVuSans-48"/>
      </g>
     </g>
    </g>
    <g id="ytick_24">
     <g id="line2d_51">
      <g>
       <use style="stroke:#000000;stroke-width:0.8;" x="473.236364" xlink:href="#m7efda19db3" y="482.451306"/>
      </g>
     </g>
     <g id="text_48">
      <!-- 200 -->
      <g transform="translate(447.148864 486.250524)scale(0.1 -0.1)">
       <use xlink:href="#DejaVuSans-50"/>
       <use x="63.623047" xlink:href="#DejaVuSans-48"/>
       <use x="127.246094" xlink:href="#DejaVuSans-48"/>
      </g>
     </g>
    </g>
   </g>
   <g id="line2d_52">
    <path clip-path="url(#p4ac891142e)" d="M 487.071074 742.518122 
L 487.901988 742.510646 
L 488.178959 741.220823 
L 488.45593 742.514205 
L 488.732901 742.516305 
L 489.009873 734.871904 
L 489.286844 742.514955 
L 490.6717 742.513999 
L 490.948671 740.10892 
L 491.225642 742.511471 
L 491.502613 742.518169 
L 491.779585 739.386171 
L 492.056556 738.967724 
L 492.333527 742.512681 
L 494.272325 742.512897 
L 494.549296 741.207259 
L 494.826268 742.514575 
L 495.657181 742.51264 
L 495.934152 741.2092 
L 496.211124 736.214139 
L 496.488095 736.536209 
L 496.765066 738.348257 
L 497.042037 736.278864 
L 497.319008 736.547809 
L 497.872951 741.206455 
L 498.149922 742.514128 
L 499.257807 742.511859 
L 499.534778 741.215048 
L 499.811749 741.230897 
L 500.08872 738.539412 
L 500.365691 739.446141 
L 500.642662 736.944192 
L 500.919634 741.215014 
L 501.196605 742.515294 
L 501.473576 738.107238 
L 501.750547 741.213529 
L 502.027518 741.212557 
L 502.30449 739.585697 
L 502.581461 742.515759 
L 505.905115 742.516929 
L 506.182086 740.245281 
L 506.459057 742.512884 
L 506.736029 742.517297 
L 507.289971 734.707818 
L 507.566942 742.51444 
L 508.397856 742.519823 
L 508.674827 741.204056 
L 508.951798 742.519636 
L 509.228769 739.197048 
L 509.782712 742.514305 
L 510.890596 742.514193 
L 511.167568 731.591674 
L 511.444539 741.225402 
L 511.72151 742.509506 
L 511.998481 735.123655 
L 512.275452 737.137856 
L 512.552423 742.515917 
L 512.829395 736.991416 
L 513.106366 739.731969 
L 513.383337 734.64017 
L 513.660308 740.294656 
L 513.937279 738.932147 
L 514.214251 736.493149 
L 514.491222 742.511988 
L 515.876078 742.509923 
L 516.153049 741.207902 
L 516.43002 741.204126 
L 516.706991 742.516904 
L 518.091847 742.511812 
L 518.368818 741.222476 
L 518.64579 735.519878 
L 518.922761 738.974861 
L 519.199732 735.518097 
L 519.753674 742.519743 
L 524.739156 742.512094 
L 525.016127 742.515325 
L 525.570069 733.923217 
L 525.84704 735.872073 
L 526.124012 732.708079 
L 526.400983 709.273653 
L 526.677954 742.513139 
L 529.447666 742.517392 
L 529.724637 728.0423 
L 530.001608 742.5142 
L 531.386464 742.516617 
L 531.663435 739.540561 
L 531.940407 734.379184 
L 532.217378 741.212326 
L 532.494349 736.491231 
L 532.77132 736.581407 
L 533.048291 741.20292 
L 533.325262 741.223927 
L 533.602234 742.511435 
L 533.879205 741.213076 
L 534.156176 739.263396 
L 534.433147 742.515644 
L 534.98709 742.516218 
L 535.264061 732.798367 
L 535.541032 742.508992 
L 540.249542 742.514699 
L 540.526513 741.215588 
L 540.803484 742.520419 
L 542.465312 742.516782 
L 542.742283 739.746776 
L 543.019254 730.63756 
L 543.296225 738.848376 
L 543.573196 742.516537 
L 543.850168 742.511391 
L 544.127139 739.351005 
L 544.40411 742.512014 
L 544.681081 742.514176 
L 544.958052 741.204253 
L 545.235023 742.512506 
L 546.065937 742.511269 
L 546.342908 741.215963 
L 546.619879 742.516829 
L 547.727764 742.515447 
L 548.004735 739.525513 
L 548.281706 740.519504 
L 548.558678 732.658307 
L 548.835649 742.520266 
L 550.220505 742.513309 
L 550.497476 741.212292 
L 550.774447 742.516175 
L 554.098101 742.515022 
L 554.375073 739.10705 
L 554.929015 742.513676 
L 558.806612 742.513326 
L 559.083583 741.218683 
L 559.637525 740.096972 
L 559.914496 740.30642 
L 560.191468 742.516858 
L 561.299352 742.512093 
L 561.576323 739.64385 
L 561.853295 741.219619 
L 562.130266 740.38528 
L 562.407237 740.727572 
L 562.684208 742.509785 
L 562.961179 742.514273 
L 563.238151 741.207056 
L 564.069064 741.215852 
L 564.346035 742.514359 
L 565.45392 742.513572 
L 565.730891 741.224701 
L 566.007862 737.146755 
L 566.284834 742.511522 
L 570.439401 742.513679 
L 570.716373 741.203555 
L 570.993344 742.510857 
L 571.270315 741.218375 
L 571.547286 742.516227 
L 573.486084 742.510833 
L 573.763056 741.210423 
L 574.040027 738.559644 
L 574.316998 737.888394 
L 574.593969 741.217087 
L 574.87094 742.514341 
L 576.809739 742.516721 
L 577.08671 741.217593 
L 577.363681 742.512538 
L 579.579451 742.509989 
L 579.856422 741.214951 
L 580.133393 742.511659 
L 580.964306 742.512503 
L 581.241278 740.057976 
L 581.518249 675.949836 
L 581.79522 742.507873 
L 583.457047 742.513436 
L 583.734018 741.222351 
L 584.01099 742.515775 
L 587.888586 742.512125 
L 588.165557 741.212085 
L 588.442528 742.51581 
L 594.258923 742.513455 
L 594.535895 741.204134 
L 594.812866 742.515032 
L 595.089837 742.513688 
L 595.366808 739.335501 
L 595.643779 742.511528 
L 597.582578 742.512301 
L 597.859549 741.220111 
L 598.13652 742.514316 
L 598.967434 742.511878 
L 599.244405 739.91914 
L 599.521376 742.515412 
L 603.952915 742.51615 
L 604.229886 740.088219 
L 604.506857 734.514637 
L 604.783828 732.067714 
L 605.0608 740.154821 
L 605.337771 742.515477 
L 608.107483 742.514848 
L 608.384454 722.120723 
L 608.661425 727.251243 
L 608.938396 742.512023 
L 609.215367 741.22408 
L 609.492339 742.515881 
L 611.154166 742.517832 
L 611.431137 738.668353 
L 611.708108 689.978474 
L 611.985079 741.210078 
L 612.26205 742.510597 
L 614.47782 742.514585 
L 614.754791 741.207112 
L 615.031762 726.991301 
L 615.308734 731.86703 
L 615.585705 730.338055 
L 615.862676 716.781441 
L 616.139647 737.413729 
L 616.416618 734.518287 
L 616.693589 734.53122 
L 616.970561 731.521354 
L 617.247532 734.056283 
L 617.524503 733.861337 
L 617.801474 728.068769 
L 618.078445 732.780326 
L 618.355417 730.911601 
L 618.632388 710.574423 
L 618.909359 737.893517 
L 619.18633 738.137145 
L 619.463301 727.049436 
L 620.017244 741.203903 
L 620.294215 741.20449 
L 620.571186 742.509321 
L 622.509984 742.514333 
L 622.786956 741.223528 
L 623.063927 742.513936 
L 624.448783 742.518663 
L 624.725754 741.21871 
L 625.002725 741.222677 
L 625.279696 742.512224 
L 626.387581 742.516929 
L 626.664552 739.548629 
L 626.941523 742.51362 
L 633.588832 742.517468 
L 633.865803 738.956221 
L 634.142774 741.201301 
L 634.419745 732.444923 
L 634.973688 741.225931 
L 635.52763 741.208851 
L 635.804601 739.869274 
L 636.081572 742.513254 
L 639.682198 742.512105 
L 639.959169 739.878097 
L 640.23614 739.35948 
L 640.513111 734.77362 
L 640.790083 742.511375 
L 641.067054 741.219063 
L 641.344025 732.050697 
L 641.620996 740.128211 
L 642.174939 742.515549 
L 644.390708 742.511491 
L 644.667679 739.190202 
L 644.94465 742.517249 
L 646.052535 742.511463 
L 646.329506 738.385704 
L 646.606478 741.210693 
L 646.883449 742.514017 
L 651.314988 742.518644 
L 651.591959 738.722593 
L 651.86893 740.170387 
L 652.145901 734.871188 
L 652.422872 734.436609 
L 652.699844 735.889581 
L 652.976815 736.733147 
L 653.253786 738.376258 
L 653.530757 735.755823 
L 653.807728 726.863571 
L 654.0847 731.250885 
L 654.361671 733.133766 
L 654.638642 730.449384 
L 654.915613 713.239966 
L 655.192584 731.139092 
L 655.469556 736.149589 
L 655.746527 725.166134 
L 656.023498 734.948515 
L 656.300469 731.159524 
L 656.57744 733.743525 
L 656.854411 733.36422 
L 657.131383 739.937221 
L 657.408354 736.202009 
L 657.685325 728.406937 
L 657.962296 735.601559 
L 658.239267 726.480799 
L 658.516239 740.332835 
L 658.79321 730.135652 
L 659.070181 728.3787 
L 659.347152 728.330528 
L 659.624123 725.522532 
L 659.901094 717.809521 
L 660.178066 718.106484 
L 660.455037 734.673167 
L 660.732008 738.876471 
L 661.008979 741.225917 
L 661.28595 742.510209 
L 662.947778 742.517864 
L 663.224749 728.293028 
L 663.50172 731.913861 
L 663.778691 742.515377 
L 664.886576 742.51588 
L 665.163547 741.209273 
L 665.440518 742.51037 
L 666.271432 742.515361 
L 666.548403 738.833919 
L 666.825374 741.210788 
L 667.102345 742.515575 
L 668.21023 742.518158 
L 668.764172 739.923971 
L 669.041144 741.22149 
L 669.318115 739.212792 
L 669.595086 738.92818 
L 669.872057 742.515662 
L 670.702971 742.515078 
L 670.979942 739.96804 
L 671.256913 734.975419 
L 671.533884 735.926926 
L 671.810855 676.971112 
L 672.087827 741.21378 
L 672.364798 742.520787 
L 674.303596 742.514961 
L 674.580567 739.049115 
L 674.857539 742.51017 
L 677.904222 742.517296 
L 678.181193 741.211815 
L 678.458164 742.51076 
L 679.289078 742.513257 
L 679.566049 741.222754 
L 679.84302 742.515243 
L 680.673933 742.51751 
L 680.950905 741.217426 
L 681.227876 738.765196 
L 681.504847 738.671893 
L 681.781818 741.216065 
L 682.058789 738.99657 
L 682.335761 740.123696 
L 682.612732 742.516876 
L 683.443645 742.51597 
L 683.720616 735.929299 
L 683.997588 739.222898 
L 684.274559 735.529854 
L 684.55153 742.512655 
L 685.659415 742.512995 
L 685.936386 741.220458 
L 686.213357 731.14916 
L 686.490328 733.588181 
L 686.7673 668.504378 
L 687.044271 661.686207 
L 687.321242 699.246565 
L 687.598213 650.22407 
L 687.875184 689.834545 
L 688.152155 675.586207 
L 688.429127 472.968595 
L 688.706098 658.167829 
L 688.983069 645.572815 
L 689.26004 642.32218 
L 689.537011 605.65048 
L 689.813983 652.015446 
L 690.367925 616.364103 
L 690.644896 642.41691 
L 690.921867 553.619955 
L 691.198839 672.034195 
L 691.47581 701.470352 
L 691.752781 661.935008 
L 692.029752 659.982676 
L 692.306723 666.761844 
L 692.583694 663.221566 
L 692.860666 652.384054 
L 693.137637 664.883274 
L 693.414608 691.602683 
L 693.691579 683.506295 
L 693.96855 685.319662 
L 694.245522 667.731764 
L 694.522493 712.611916 
L 694.799464 694.0429 
L 695.076435 703.452881 
L 695.353406 684.616813 
L 695.907349 689.217174 
L 696.18432 667.741933 
L 696.461291 492.712423 
L 696.738262 662.137529 
L 697.015233 664.844476 
L 697.292205 631.041201 
L 698.123118 678.233947 
L 698.677061 624.945536 
L 698.954032 646.044708 
L 699.231003 643.10772 
L 699.507974 606.93235 
L 699.784945 630.134869 
L 700.061916 701.643023 
L 700.338888 675.997605 
L 700.615859 621.047451 
L 700.89283 656.602273 
L 701.169801 589.625788 
L 701.446772 675.162593 
L 701.723744 649.689134 
L 702.000715 646.041761 
L 702.277686 639.028034 
L 702.554657 681.9439 
L 702.831628 661.06058 
L 703.1086 672.021353 
L 703.385571 636.086856 
L 703.662542 657.535722 
L 703.939513 649.952717 
L 704.216484 568.282124 
L 704.493455 679.854812 
L 704.770427 671.170589 
L 705.047398 640.497974 
L 705.324369 692.039472 
L 705.60134 686.716981 
L 705.878311 706.843863 
L 706.155283 699.325673 
L 706.432254 719.049546 
L 706.709225 697.691391 
L 707.263167 720.929797 
L 707.540138 683.044716 
L 707.81711 696.538809 
L 708.094081 660.657793 
L 708.371052 688.611122 
L 708.648023 679.15917 
L 708.924994 648.69244 
L 709.201966 701.997128 
L 709.478937 688.794437 
L 709.755908 690.152379 
L 710.032879 694.746049 
L 710.30985 665.403611 
L 710.586822 676.981221 
L 710.863793 655.233539 
L 711.140764 502.94856 
L 711.417735 722.346023 
L 711.694706 671.931639 
L 711.971677 709.352136 
L 712.248649 700.181228 
L 712.802591 718.432415 
L 713.356533 708.010629 
L 713.633505 699.250966 
L 713.910476 644.122227 
L 714.187447 712.310396 
L 714.464418 726.961213 
L 714.741389 722.712546 
L 715.018361 714.168806 
L 715.295332 735.159506 
L 715.572303 703.829782 
L 715.849274 724.46599 
L 716.126245 705.846372 
L 716.403216 724.764311 
L 716.680188 652.59115 
L 716.957159 494.838294 
L 717.23413 707.220448 
L 717.511101 692.177152 
L 717.788072 719.959121 
L 718.065044 706.218612 
L 718.342015 706.574109 
L 718.618986 706.300633 
L 718.895957 708.953963 
L 719.172928 714.117536 
L 719.449899 708.10502 
L 719.726871 723.833404 
L 720.003842 720.43018 
L 720.280813 709.736117 
L 720.557784 729.339981 
L 720.834755 702.934397 
L 721.111727 734.232509 
L 721.388698 712.935716 
L 721.665669 724.412325 
L 721.94264 715.321369 
L 722.219611 724.317771 
L 722.496583 724.321201 
L 722.773554 684.474459 
L 723.050525 727.240331 
L 723.327496 735.090955 
L 723.604467 727.099416 
L 723.881438 728.80322 
L 724.435381 741.209142 
L 724.712352 739.162479 
L 724.989323 739.919575 
L 725.266294 742.520668 
L 728.036006 742.513519 
L 728.312977 741.220529 
L 728.589949 742.515487 
L 728.86692 742.508842 
L 729.143891 741.215281 
L 729.420862 742.514162 
L 734.960286 742.51731 
L 735.237257 741.214408 
L 735.514228 742.516753 
L 736.622113 742.516009 
L 736.899084 739.750481 
L 737.176055 739.521842 
L 737.729998 742.515991 
L 739.668796 742.518548 
L 739.945767 739.251994 
L 740.222738 740.363375 
L 740.49971 742.511761 
L 742.438508 742.516022 
L 742.715479 741.207174 
L 742.99245 742.515946 
L 743.269421 734.381923 
L 743.546393 741.217071 
L 743.823364 742.516743 
L 744.654277 742.517689 
L 744.931249 741.220184 
L 745.20822 741.222767 
L 745.485191 739.447804 
L 745.762162 742.514075 
L 746.870047 742.514727 
L 747.147018 741.211664 
L 747.423989 742.515742 
L 750.747644 742.514317 
L 751.024615 734.646001 
L 751.301586 741.216081 
L 751.578557 742.508832 
L 752.963413 742.517217 
L 753.240384 736.185344 
L 753.517355 739.489291 
L 754.071298 734.127832 
L 754.348269 740.445521 
L 754.62524 742.512029 
L 757.394952 742.51478 
L 757.671923 741.208902 
L 757.948894 733.299206 
L 758.225866 739.93179 
L 758.779808 742.510692 
L 759.056779 742.513575 
L 759.33375 741.20621 
L 759.610721 742.512273 
L 759.887693 740.406453 
L 760.164664 740.070286 
L 760.441635 742.516079 
L 762.380433 742.514374 
L 762.657405 739.64692 
L 762.934376 742.512234 
L 763.211347 741.207047 
L 763.488318 741.208855 
L 763.765289 742.515156 
L 763.765289 742.515156 
" style="fill:none;stroke:#1f77b4;stroke-linecap:square;stroke-width:1.5;"/>
   </g>
   <g id="patch_18">
    <path d="M 473.236364 756 
L 473.236364 459.490909 
" style="fill:none;stroke:#000000;stroke-linecap:square;stroke-linejoin:miter;stroke-width:0.8;"/>
   </g>
   <g id="patch_19">
    <path d="M 777.6 756 
L 777.6 459.490909 
" style="fill:none;stroke:#000000;stroke-linecap:square;stroke-linejoin:miter;stroke-width:0.8;"/>
   </g>
   <g id="patch_20">
    <path d="M 473.236364 756 
L 777.6 756 
" style="fill:none;stroke:#000000;stroke-linecap:square;stroke-linejoin:miter;stroke-width:0.8;"/>
   </g>
   <g id="patch_21">
    <path d="M 473.236364 459.490909 
L 777.6 459.490909 
" style="fill:none;stroke:#000000;stroke-linecap:square;stroke-linejoin:miter;stroke-width:0.8;"/>
   </g>
  </g>
 </g>
 <defs>
  <clipPath id="pbee0288781">
   <rect height="296.509091" width="304.363636" x="108" y="103.68"/>
  </clipPath>
  <clipPath id="pe5a192d5cd">
   <rect height="296.509091" width="304.363636" x="473.236364" y="103.68"/>
  </clipPath>
  <clipPath id="p7295a7de42">
   <rect height="296.509091" width="304.363636" x="108" y="459.490909"/>
  </clipPath>
  <clipPath id="p4ac891142e">
   <rect height="296.509091" width="304.363636" x="473.236364" y="459.490909"/>
  </clipPath>
 </defs>
</svg>
