<?xml version="1.0" encoding="utf-8" standalone="no"?>
<!DOCTYPE svg PUBLIC "-//W3C//DTD SVG 1.1//EN"
  "http://www.w3.org/Graphics/SVG/1.1/DTD/svg11.dtd">
<!-- Created with matplotlib (https://matplotlib.org/) -->
<svg height="432pt" version="1.1" viewBox="0 0 432 432" width="432pt" xmlns="http://www.w3.org/2000/svg" xmlns:xlink="http://www.w3.org/1999/xlink">
 <defs>
  <style type="text/css">
*{stroke-linecap:butt;stroke-linejoin:round;}
  </style>
 </defs>
 <g id="figure_1">
  <g id="patch_1">
   <path d="M 0 432 
L 432 432 
L 432 0 
L 0 0 
z
" style="fill:#ffffff;"/>
  </g>
  <g id="axes_1">
   <g id="patch_2">
    <path d="M 54 378 
L 388.8 378 
L 388.8 51.84 
L 54 51.84 
z
" style="fill:#ffffff;"/>
   </g>
   <g id="matplotlib.axis_1">
    <g id="xtick_1">
     <g id="line2d_1">
      <defs>
       <path d="M 0 0 
L 0 3.5 
" id="m65a9c9172f" style="stroke:#000000;stroke-width:0.8;"/>
      </defs>
      <g>
       <use style="stroke:#000000;stroke-width:0.8;" x="69.218182" xlink:href="#m65a9c9172f" y="378"/>
      </g>
     </g>
     <g id="text_1">
      <!-- 0 -->
      <defs>
       <path d="M 31.78125 66.40625 
Q 24.171875 66.40625 20.328125 58.90625 
Q 16.5 51.421875 16.5 36.375 
Q 16.5 21.390625 20.328125 13.890625 
Q 24.171875 6.390625 31.78125 6.390625 
Q 39.453125 6.390625 43.28125 13.890625 
Q 47.125 21.390625 47.125 36.375 
Q 47.125 51.421875 43.28125 58.90625 
Q 39.453125 66.40625 31.78125 66.40625 
z
M 31.78125 74.21875 
Q 44.046875 74.21875 50.515625 64.515625 
Q 56.984375 54.828125 56.984375 36.375 
Q 56.984375 17.96875 50.515625 8.265625 
Q 44.046875 -1.421875 31.78125 -1.421875 
Q 19.53125 -1.421875 13.0625 8.265625 
Q 6.59375 17.96875 6.59375 36.375 
Q 6.59375 54.828125 13.0625 64.515625 
Q 19.53125 74.21875 31.78125 74.21875 
z
" id="DejaVuSans-48"/>
      </defs>
      <g transform="translate(66.036932 392.598437)scale(0.1 -0.1)">
       <use xlink:href="#DejaVuSans-48"/>
      </g>
     </g>
    </g>
    <g id="xtick_2">
     <g id="line2d_2">
      <g>
       <use style="stroke:#000000;stroke-width:0.8;" x="130.151843" xlink:href="#m65a9c9172f" y="378"/>
      </g>
     </g>
     <g id="text_2">
      <!-- 200 -->
      <defs>
       <path d="M 19.1875 8.296875 
L 53.609375 8.296875 
L 53.609375 0 
L 7.328125 0 
L 7.328125 8.296875 
Q 12.9375 14.109375 22.625 23.890625 
Q 32.328125 33.6875 34.8125 36.53125 
Q 39.546875 41.84375 41.421875 45.53125 
Q 43.3125 49.21875 43.3125 52.78125 
Q 43.3125 58.59375 39.234375 62.25 
Q 35.15625 65.921875 28.609375 65.921875 
Q 23.96875 65.921875 18.8125 64.3125 
Q 13.671875 62.703125 7.8125 59.421875 
L 7.8125 69.390625 
Q 13.765625 71.78125 18.9375 73 
Q 24.125 74.21875 28.421875 74.21875 
Q 39.75 74.21875 46.484375 68.546875 
Q 53.21875 62.890625 53.21875 53.421875 
Q 53.21875 48.921875 51.53125 44.890625 
Q 49.859375 40.875 45.40625 35.40625 
Q 44.1875 33.984375 37.640625 27.21875 
Q 31.109375 20.453125 19.1875 8.296875 
z
" id="DejaVuSans-50"/>
      </defs>
      <g transform="translate(120.608093 392.598437)scale(0.1 -0.1)">
       <use xlink:href="#DejaVuSans-50"/>
       <use x="63.623047" xlink:href="#DejaVuSans-48"/>
       <use x="127.246094" xlink:href="#DejaVuSans-48"/>
      </g>
     </g>
    </g>
    <g id="xtick_3">
     <g id="line2d_3">
      <g>
       <use style="stroke:#000000;stroke-width:0.8;" x="191.085504" xlink:href="#m65a9c9172f" y="378"/>
      </g>
     </g>
     <g id="text_3">
      <!-- 400 -->
      <defs>
       <path d="M 37.796875 64.3125 
L 12.890625 25.390625 
L 37.796875 25.390625 
z
M 35.203125 72.90625 
L 47.609375 72.90625 
L 47.609375 25.390625 
L 58.015625 25.390625 
L 58.015625 17.1875 
L 47.609375 17.1875 
L 47.609375 0 
L 37.796875 0 
L 37.796875 17.1875 
L 4.890625 17.1875 
L 4.890625 26.703125 
z
" id="DejaVuSans-52"/>
      </defs>
      <g transform="translate(181.541754 392.598437)scale(0.1 -0.1)">
       <use xlink:href="#DejaVuSans-52"/>
       <use x="63.623047" xlink:href="#DejaVuSans-48"/>
       <use x="127.246094" xlink:href="#DejaVuSans-48"/>
      </g>
     </g>
    </g>
    <g id="xtick_4">
     <g id="line2d_4">
      <g>
       <use style="stroke:#000000;stroke-width:0.8;" x="252.019165" xlink:href="#m65a9c9172f" y="378"/>
      </g>
     </g>
     <g id="text_4">
      <!-- 600 -->
      <defs>
       <path d="M 33.015625 40.375 
Q 26.375 40.375 22.484375 35.828125 
Q 18.609375 31.296875 18.609375 23.390625 
Q 18.609375 15.53125 22.484375 10.953125 
Q 26.375 6.390625 33.015625 6.390625 
Q 39.65625 6.390625 43.53125 10.953125 
Q 47.40625 15.53125 47.40625 23.390625 
Q 47.40625 31.296875 43.53125 35.828125 
Q 39.65625 40.375 33.015625 40.375 
z
M 52.59375 71.296875 
L 52.59375 62.3125 
Q 48.875 64.0625 45.09375 64.984375 
Q 41.3125 65.921875 37.59375 65.921875 
Q 27.828125 65.921875 22.671875 59.328125 
Q 17.53125 52.734375 16.796875 39.40625 
Q 19.671875 43.65625 24.015625 45.921875 
Q 28.375 48.1875 33.59375 48.1875 
Q 44.578125 48.1875 50.953125 41.515625 
Q 57.328125 34.859375 57.328125 23.390625 
Q 57.328125 12.15625 50.6875 5.359375 
Q 44.046875 -1.421875 33.015625 -1.421875 
Q 20.359375 -1.421875 13.671875 8.265625 
Q 6.984375 17.96875 6.984375 36.375 
Q 6.984375 53.65625 15.1875 63.9375 
Q 23.390625 74.21875 37.203125 74.21875 
Q 40.921875 74.21875 44.703125 73.484375 
Q 48.484375 72.75 52.59375 71.296875 
z
" id="DejaVuSans-54"/>
      </defs>
      <g transform="translate(242.475415 392.598437)scale(0.1 -0.1)">
       <use xlink:href="#DejaVuSans-54"/>
       <use x="63.623047" xlink:href="#DejaVuSans-48"/>
       <use x="127.246094" xlink:href="#DejaVuSans-48"/>
      </g>
     </g>
    </g>
    <g id="xtick_5">
     <g id="line2d_5">
      <g>
       <use style="stroke:#000000;stroke-width:0.8;" x="312.952826" xlink:href="#m65a9c9172f" y="378"/>
      </g>
     </g>
     <g id="text_5">
      <!-- 800 -->
      <defs>
       <path d="M 31.78125 34.625 
Q 24.75 34.625 20.71875 30.859375 
Q 16.703125 27.09375 16.703125 20.515625 
Q 16.703125 13.921875 20.71875 10.15625 
Q 24.75 6.390625 31.78125 6.390625 
Q 38.8125 6.390625 42.859375 10.171875 
Q 46.921875 13.96875 46.921875 20.515625 
Q 46.921875 27.09375 42.890625 30.859375 
Q 38.875 34.625 31.78125 34.625 
z
M 21.921875 38.8125 
Q 15.578125 40.375 12.03125 44.71875 
Q 8.5 49.078125 8.5 55.328125 
Q 8.5 64.0625 14.71875 69.140625 
Q 20.953125 74.21875 31.78125 74.21875 
Q 42.671875 74.21875 48.875 69.140625 
Q 55.078125 64.0625 55.078125 55.328125 
Q 55.078125 49.078125 51.53125 44.71875 
Q 48 40.375 41.703125 38.8125 
Q 48.828125 37.15625 52.796875 32.3125 
Q 56.78125 27.484375 56.78125 20.515625 
Q 56.78125 9.90625 50.3125 4.234375 
Q 43.84375 -1.421875 31.78125 -1.421875 
Q 19.734375 -1.421875 13.25 4.234375 
Q 6.78125 9.90625 6.78125 20.515625 
Q 6.78125 27.484375 10.78125 32.3125 
Q 14.796875 37.15625 21.921875 38.8125 
z
M 18.3125 54.390625 
Q 18.3125 48.734375 21.84375 45.5625 
Q 25.390625 42.390625 31.78125 42.390625 
Q 38.140625 42.390625 41.71875 45.5625 
Q 45.3125 48.734375 45.3125 54.390625 
Q 45.3125 60.0625 41.71875 63.234375 
Q 38.140625 66.40625 31.78125 66.40625 
Q 25.390625 66.40625 21.84375 63.234375 
Q 18.3125 60.0625 18.3125 54.390625 
z
" id="DejaVuSans-56"/>
      </defs>
      <g transform="translate(303.409076 392.598437)scale(0.1 -0.1)">
       <use xlink:href="#DejaVuSans-56"/>
       <use x="63.623047" xlink:href="#DejaVuSans-48"/>
       <use x="127.246094" xlink:href="#DejaVuSans-48"/>
      </g>
     </g>
    </g>
    <g id="xtick_6">
     <g id="line2d_6">
      <g>
       <use style="stroke:#000000;stroke-width:0.8;" x="373.886486" xlink:href="#m65a9c9172f" y="378"/>
      </g>
     </g>
     <g id="text_6">
      <!-- 1000 -->
      <defs>
       <path d="M 12.40625 8.296875 
L 28.515625 8.296875 
L 28.515625 63.921875 
L 10.984375 60.40625 
L 10.984375 69.390625 
L 28.421875 72.90625 
L 38.28125 72.90625 
L 38.28125 8.296875 
L 54.390625 8.296875 
L 54.390625 0 
L 12.40625 0 
z
" id="DejaVuSans-49"/>
      </defs>
      <g transform="translate(361.161486 392.598437)scale(0.1 -0.1)">
       <use xlink:href="#DejaVuSans-49"/>
       <use x="63.623047" xlink:href="#DejaVuSans-48"/>
       <use x="127.246094" xlink:href="#DejaVuSans-48"/>
       <use x="190.869141" xlink:href="#DejaVuSans-48"/>
      </g>
     </g>
    </g>
   </g>
   <g id="matplotlib.axis_2">
    <g id="ytick_1">
     <g id="line2d_7">
      <defs>
       <path d="M 0 0 
L -3.5 0 
" id="m344b3b4e61" style="stroke:#000000;stroke-width:0.8;"/>
      </defs>
      <g>
       <use style="stroke:#000000;stroke-width:0.8;" x="54" xlink:href="#m344b3b4e61" y="357.740823"/>
      </g>
     </g>
     <g id="text_7">
      <!-- 0 -->
      <g transform="translate(40.6375 361.540042)scale(0.1 -0.1)">
       <use xlink:href="#DejaVuSans-48"/>
      </g>
     </g>
    </g>
    <g id="ytick_2">
     <g id="line2d_8">
      <g>
       <use style="stroke:#000000;stroke-width:0.8;" x="54" xlink:href="#m344b3b4e61" y="298.531259"/>
      </g>
     </g>
     <g id="text_8">
      <!-- 50 -->
      <defs>
       <path d="M 10.796875 72.90625 
L 49.515625 72.90625 
L 49.515625 64.59375 
L 19.828125 64.59375 
L 19.828125 46.734375 
Q 21.96875 47.46875 24.109375 47.828125 
Q 26.265625 48.1875 28.421875 48.1875 
Q 40.625 48.1875 47.75 41.5 
Q 54.890625 34.8125 54.890625 23.390625 
Q 54.890625 11.625 47.5625 5.09375 
Q 40.234375 -1.421875 26.90625 -1.421875 
Q 22.3125 -1.421875 17.546875 -0.640625 
Q 12.796875 0.140625 7.71875 1.703125 
L 7.71875 11.625 
Q 12.109375 9.234375 16.796875 8.0625 
Q 21.484375 6.890625 26.703125 6.890625 
Q 35.15625 6.890625 40.078125 11.328125 
Q 45.015625 15.765625 45.015625 23.390625 
Q 45.015625 31 40.078125 35.4375 
Q 35.15625 39.890625 26.703125 39.890625 
Q 22.75 39.890625 18.8125 39.015625 
Q 14.890625 38.140625 10.796875 36.28125 
z
" id="DejaVuSans-53"/>
      </defs>
      <g transform="translate(34.275 302.330478)scale(0.1 -0.1)">
       <use xlink:href="#DejaVuSans-53"/>
       <use x="63.623047" xlink:href="#DejaVuSans-48"/>
      </g>
     </g>
    </g>
    <g id="ytick_3">
     <g id="line2d_9">
      <g>
       <use style="stroke:#000000;stroke-width:0.8;" x="54" xlink:href="#m344b3b4e61" y="239.321695"/>
      </g>
     </g>
     <g id="text_9">
      <!-- 100 -->
      <g transform="translate(27.9125 243.120914)scale(0.1 -0.1)">
       <use xlink:href="#DejaVuSans-49"/>
       <use x="63.623047" xlink:href="#DejaVuSans-48"/>
       <use x="127.246094" xlink:href="#DejaVuSans-48"/>
      </g>
     </g>
    </g>
    <g id="ytick_4">
     <g id="line2d_10">
      <g>
       <use style="stroke:#000000;stroke-width:0.8;" x="54" xlink:href="#m344b3b4e61" y="180.112131"/>
      </g>
     </g>
     <g id="text_10">
      <!-- 150 -->
      <g transform="translate(27.9125 183.91135)scale(0.1 -0.1)">
       <use xlink:href="#DejaVuSans-49"/>
       <use x="63.623047" xlink:href="#DejaVuSans-53"/>
       <use x="127.246094" xlink:href="#DejaVuSans-48"/>
      </g>
     </g>
    </g>
    <g id="ytick_5">
     <g id="line2d_11">
      <g>
       <use style="stroke:#000000;stroke-width:0.8;" x="54" xlink:href="#m344b3b4e61" y="120.902567"/>
      </g>
     </g>
     <g id="text_11">
      <!-- 200 -->
      <g transform="translate(27.9125 124.701786)scale(0.1 -0.1)">
       <use xlink:href="#DejaVuSans-50"/>
       <use x="63.623047" xlink:href="#DejaVuSans-48"/>
       <use x="127.246094" xlink:href="#DejaVuSans-48"/>
      </g>
     </g>
    </g>
    <g id="ytick_6">
     <g id="line2d_12">
      <g>
       <use style="stroke:#000000;stroke-width:0.8;" x="54" xlink:href="#m344b3b4e61" y="61.693003"/>
      </g>
     </g>
     <g id="text_12">
      <!-- 250 -->
      <g transform="translate(27.9125 65.492222)scale(0.1 -0.1)">
       <use xlink:href="#DejaVuSans-50"/>
       <use x="63.623047" xlink:href="#DejaVuSans-53"/>
       <use x="127.246094" xlink:href="#DejaVuSans-48"/>
      </g>
     </g>
    </g>
   </g>
   <g id="line2d_13">
    <path clip-path="url(#pce604f0a39)" d="M 69.218182 357.738504 
L 70.741523 357.74191 
L 71.046192 355.660607 
L 71.35086 357.742492 
L 73.788206 357.736188 
L 74.092875 354.094656 
L 74.397543 356.557592 
L 74.702211 357.742342 
L 75.00688 350.922723 
L 75.311548 357.743346 
L 76.834889 357.747449 
L 77.139558 355.276995 
L 77.444226 356.55331 
L 77.748894 356.564643 
L 78.053563 345.480737 
L 78.358231 357.741733 
L 78.662899 357.739335 
L 78.967568 349.36033 
L 79.576904 354.059683 
L 79.881572 353.162999 
L 80.186241 356.547717 
L 80.490909 338.378902 
L 80.795577 357.74113 
L 81.404914 357.741462 
L 81.709582 354.741114 
L 82.014251 357.742487 
L 82.623587 357.736902 
L 82.928256 356.550329 
L 83.232924 357.740675 
L 85.67027 357.736071 
L 85.974939 350.548713 
L 86.279607 356.685678 
L 86.584275 357.7415 
L 88.716953 357.742252 
L 89.021622 356.555262 
L 89.32629 357.740356 
L 92.068305 357.740763 
L 92.372973 354.773826 
L 92.677641 357.741147 
L 93.286978 357.745366 
L 93.591646 354.478424 
L 93.896314 355.781678 
L 94.200983 357.742402 
L 94.505651 356.558631 
L 95.114988 356.554383 
L 95.419656 357.738711 
L 100.294349 357.742688 
L 100.599017 356.555643 
L 100.903686 357.738872 
L 102.427027 357.741999 
L 102.731695 356.545791 
L 103.036364 356.170833 
L 103.341032 357.74189 
L 106.692383 357.735552 
L 106.997052 355.22037 
L 107.30172 355.690677 
L 107.606388 355.453806 
L 108.215725 357.740054 
L 112.481081 357.741074 
L 112.785749 356.556787 
L 113.090418 357.743021 
L 117.051106 357.741762 
L 117.355774 356.552486 
L 117.660442 354.526492 
L 117.965111 356.553742 
L 118.269779 356.555988 
L 118.574447 355.746182 
L 118.879115 357.741641 
L 124.058477 357.738735 
L 124.363145 356.55443 
L 124.667813 357.735928 
L 125.27715 355.439176 
L 125.581818 357.741364 
L 133.503194 357.745302 
L 133.807862 356.570985 
L 134.112531 357.741906 
L 134.417199 354.309449 
L 134.721867 357.742117 
L 136.245209 357.742628 
L 136.549877 356.559099 
L 136.854545 357.743232 
L 138.987224 357.739326 
L 139.291892 356.566248 
L 139.59656 357.737124 
L 141.729238 357.740702 
L 142.033907 355.075595 
L 142.338575 357.737814 
L 142.643243 355.604447 
L 142.947912 349.045934 
L 143.25258 356.546749 
L 143.557248 357.743073 
L 143.861916 352.201645 
L 144.166585 357.737127 
L 147.213268 357.739038 
L 147.517936 354.907529 
L 147.822604 356.564274 
L 148.431941 356.564517 
L 148.736609 353.515512 
L 149.041278 356.552036 
L 149.650614 339.082561 
L 149.955283 344.753369 
L 150.259951 356.558011 
L 150.564619 354.334789 
L 150.869287 357.740583 
L 152.087961 357.739935 
L 152.392629 356.554339 
L 152.697297 357.744797 
L 153.001966 357.741005 
L 153.306634 356.559154 
L 154.220639 356.568181 
L 154.525307 354.922002 
L 154.829975 346.777985 
L 155.134644 354.947499 
L 155.439312 357.741751 
L 156.048649 357.741002 
L 156.353317 356.557216 
L 156.962654 352.788808 
L 157.267322 357.740293 
L 160.314005 357.742129 
L 160.618673 353.19638 
L 160.923342 354.41317 
L 161.22801 357.738385 
L 168.844717 357.73934 
L 169.149386 354.792748 
L 169.454054 346.637855 
L 169.758722 357.741125 
L 171.586732 357.742731 
L 171.8914 354.176447 
L 172.196069 345.835407 
L 172.500737 355.475991 
L 172.805405 355.419452 
L 173.110074 350.706995 
L 173.414742 357.743109 
L 174.633415 357.735789 
L 174.938084 354.352226 
L 175.242752 354.993198 
L 175.54742 354.410356 
L 175.852088 354.563598 
L 176.461425 351.746408 
L 176.766093 352.705108 
L 177.070762 342.852348 
L 177.37543 345.78525 
L 177.680098 341.120519 
L 177.984767 351.193527 
L 178.289435 339.710722 
L 178.594103 335.117539 
L 178.898771 339.342764 
L 179.20344 345.305746 
L 179.508108 345.564026 
L 179.812776 348.678425 
L 180.117445 348.284642 
L 180.422113 353.245478 
L 180.726781 353.021388 
L 181.03145 354.452655 
L 181.640786 348.429058 
L 182.250123 346.445309 
L 182.554791 352.454965 
L 182.859459 355.359154 
L 183.164128 351.144296 
L 183.468796 350.143684 
L 183.773464 341.1977 
L 184.078133 350.819793 
L 184.382801 343.751995 
L 184.687469 346.981823 
L 184.992138 351.720884 
L 185.296806 350.786245 
L 185.601474 351.57839 
L 185.906143 342.260851 
L 186.210811 354.278871 
L 186.515479 351.853488 
L 186.820147 348.261329 
L 187.124816 356.555279 
L 187.429484 357.748069 
L 188.648157 357.744701 
L 188.952826 353.315017 
L 189.257494 353.508456 
L 189.562162 351.635119 
L 189.86683 346.679389 
L 190.171499 329.00513 
L 190.476167 345.527549 
L 190.780835 348.022692 
L 191.085504 328.36603 
L 191.69484 347.058973 
L 191.999509 345.729178 
L 192.304177 340.366982 
L 192.608845 340.318504 
L 192.913514 348.80856 
L 193.218182 335.023653 
L 193.52285 329.175098 
L 193.827518 348.595468 
L 194.132187 331.007123 
L 194.436855 327.714053 
L 194.741523 335.250003 
L 195.046192 324.086355 
L 195.35086 338.032622 
L 195.655528 331.73804 
L 195.960197 329.163096 
L 196.264865 335.189632 
L 196.569533 316.707679 
L 196.874201 332.822906 
L 197.17887 334.635945 
L 197.483538 337.649218 
L 197.788206 348.958083 
L 198.092875 337.571447 
L 198.397543 339.34982 
L 198.702211 343.478907 
L 199.00688 334.174368 
L 199.311548 340.141401 
L 199.616216 315.133117 
L 199.920885 316.592789 
L 200.225553 335.598281 
L 200.530221 335.927669 
L 200.834889 339.425413 
L 201.139558 338.995952 
L 201.444226 338.975641 
L 201.748894 325.493041 
L 202.053563 347.261859 
L 202.662899 330.325521 
L 202.967568 340.761426 
L 203.272236 340.565557 
L 203.576904 334.575921 
L 203.881572 348.47367 
L 204.186241 341.064633 
L 204.490909 259.066231 
L 205.100246 323.480333 
L 205.404914 339.157243 
L 205.709582 301.532544 
L 206.014251 346.406854 
L 206.318919 335.755915 
L 206.623587 343.949507 
L 206.928256 282.016972 
L 207.232924 337.43009 
L 207.537592 320.95439 
L 208.146929 342.729039 
L 208.451597 285.120665 
L 208.756265 334.079383 
L 209.060934 324.821829 
L 209.67027 344.146425 
L 209.974939 345.226756 
L 210.279607 328.991364 
L 210.584275 327.818551 
L 210.888943 340.66933 
L 211.193612 345.338502 
L 211.49828 319.42661 
L 211.802948 312.447855 
L 212.107617 338.97494 
L 212.412285 336.715672 
L 212.716953 324.357922 
L 213.021622 302.361092 
L 213.32629 333.026489 
L 213.630958 334.035288 
L 213.935627 329.060622 
L 214.240295 326.540383 
L 214.544963 321.427364 
L 214.849631 333.408072 
L 215.1543 311.879809 
L 215.458968 337.202124 
L 215.763636 338.260745 
L 216.068305 322.763088 
L 216.372973 346.141172 
L 216.677641 323.890463 
L 216.98231 363.174545 
L 217.286978 349.927435 
L 217.591646 330.158563 
L 217.896314 335.061038 
L 218.200983 336.64744 
L 218.505651 320.922863 
L 218.810319 352.905038 
L 219.114988 329.169047 
L 219.419656 327.316457 
L 219.724324 341.26122 
L 220.028993 341.586913 
L 220.333661 341.574943 
L 220.638329 338.949573 
L 220.942998 348.093138 
L 221.247666 335.058481 
L 221.552334 332.926875 
L 221.857002 338.73714 
L 222.161671 318.873702 
L 222.466339 333.917324 
L 222.771007 316.529285 
L 223.075676 341.072876 
L 223.380344 333.792924 
L 223.989681 340.740224 
L 224.294349 341.503282 
L 224.599017 301.235774 
L 224.903686 348.489127 
L 225.208354 337.030376 
L 225.513022 333.268752 
L 225.81769 342.699732 
L 226.122359 148.459024 
L 226.427027 262.752918 
L 226.731695 272.994117 
L 227.036364 273.148418 
L 227.341032 265.293336 
L 227.6457 285.01783 
L 227.950369 280.185769 
L 228.255037 246.191978 
L 228.559705 289.629419 
L 228.864373 66.665455 
L 229.169042 208.249805 
L 229.47371 244.687428 
L 229.778378 301.683148 
L 230.083047 306.040557 
L 230.692383 320.069162 
L 230.997052 313.111548 
L 231.30172 326.896707 
L 231.606388 283.307027 
L 231.911057 296.899397 
L 232.215725 273.590992 
L 232.825061 335.113435 
L 233.12973 290.799952 
L 233.434398 286.055819 
L 233.739066 324.25337 
L 234.043735 305.984046 
L 234.348403 312.775559 
L 234.653071 325.44008 
L 234.95774 299.557458 
L 235.262408 319.811495 
L 235.567076 327.403189 
L 235.871744 316.501642 
L 236.176413 297.622276 
L 236.785749 318.425605 
L 237.090418 333.563102 
L 237.395086 333.466673 
L 237.699754 323.474706 
L 238.004423 338.842145 
L 238.309091 343.030915 
L 238.613759 317.979704 
L 238.918428 318.081258 
L 239.223096 315.602818 
L 239.527764 326.441108 
L 239.832432 327.289594 
L 240.746437 319.331308 
L 241.051106 325.566417 
L 241.355774 329.118432 
L 241.660442 334.84294 
L 241.965111 332.229404 
L 242.269779 317.640104 
L 242.574447 324.677967 
L 242.879115 291.579335 
L 243.183784 325.326029 
L 243.488452 310.216885 
L 243.79312 330.245893 
L 244.097789 331.269016 
L 244.402457 332.950987 
L 245.316462 296.724334 
L 245.62113 305.563445 
L 245.925799 333.396454 
L 246.230467 321.277452 
L 246.535135 261.219813 
L 246.839803 319.313529 
L 247.144472 337.016591 
L 247.44914 327.165191 
L 247.753808 300.838364 
L 248.058477 290.269582 
L 248.363145 311.989998 
L 248.667813 351.374562 
L 248.972482 348.530404 
L 249.27715 351.52881 
L 249.581818 335.311432 
L 249.886486 352.67158 
L 250.191155 342.474492 
L 250.495823 353.54672 
L 250.800491 307.691794 
L 251.10516 343.457526 
L 251.714496 337.475489 
L 252.019165 347.790314 
L 252.323833 339.15796 
L 252.628501 339.687723 
L 252.93317 338.861234 
L 253.237838 335.507863 
L 253.542506 340.850474 
L 253.847174 330.220828 
L 254.151843 354.924922 
L 254.761179 333.785997 
L 255.065848 342.391426 
L 255.370516 345.705633 
L 255.675184 344.021181 
L 255.979853 346.01335 
L 256.284521 343.374508 
L 256.589189 346.906074 
L 256.893857 346.764208 
L 257.198526 336.345544 
L 257.503194 334.299743 
L 257.807862 349.064355 
L 258.417199 340.44367 
L 258.721867 353.993571 
L 259.026536 340.860864 
L 259.331204 344.3982 
L 259.635872 301.226692 
L 259.940541 346.608019 
L 260.245209 327.785458 
L 260.549877 337.563794 
L 260.854545 317.057121 
L 261.159214 336.498971 
L 261.463882 348.011193 
L 261.76855 314.316888 
L 262.073219 346.529885 
L 262.682555 339.400183 
L 262.987224 316.823742 
L 263.291892 347.436324 
L 263.59656 348.479094 
L 263.901229 331.954747 
L 264.205897 347.935296 
L 264.510565 340.381478 
L 264.815233 339.481464 
L 265.119902 350.276151 
L 265.42457 348.133902 
L 265.729238 356.006227 
L 266.033907 348.632841 
L 266.338575 353.722027 
L 266.643243 355.550925 
L 266.947912 341.68105 
L 267.25258 336.581777 
L 267.557248 320.747711 
L 267.861916 339.91122 
L 268.166585 321.721632 
L 268.471253 345.849904 
L 268.775921 333.67701 
L 269.08059 346.032506 
L 269.385258 321.659406 
L 269.689926 321.244729 
L 269.994595 333.925656 
L 270.299263 339.182568 
L 270.603931 327.459499 
L 270.9086 322.68807 
L 271.213268 327.138479 
L 271.517936 320.600071 
L 272.127273 336.489632 
L 272.431941 335.898788 
L 272.736609 340.902952 
L 273.041278 352.987003 
L 273.345946 340.840402 
L 273.650614 352.008941 
L 273.955283 345.502247 
L 274.259951 333.804755 
L 274.564619 335.021394 
L 274.869287 334.842471 
L 275.173956 325.123696 
L 275.783292 343.967697 
L 276.087961 345.272758 
L 276.392629 347.363411 
L 276.697297 338.480306 
L 277.001966 336.458685 
L 277.306634 340.658816 
L 278.220639 331.240197 
L 278.525307 341.987488 
L 278.829975 335.49396 
L 279.134644 344.583035 
L 279.439312 305.194855 
L 279.74398 348.363056 
L 280.048649 350.194802 
L 280.353317 337.983631 
L 280.962654 347.158463 
L 281.267322 341.910402 
L 281.57199 340.828032 
L 281.876658 341.355602 
L 282.181327 343.77884 
L 282.485995 338.215107 
L 282.790663 326.989203 
L 283.095332 340.749376 
L 283.4 337.278814 
L 283.704668 352.25153 
L 284.009337 340.151336 
L 284.314005 343.277034 
L 284.618673 315.827829 
L 284.923342 346.416591 
L 285.22801 320.815089 
L 285.532678 336.884284 
L 286.142015 323.554704 
L 286.446683 351.560913 
L 286.751351 321.171511 
L 287.05602 335.502022 
L 287.360688 336.995247 
L 287.665356 323.183607 
L 287.970025 347.507627 
L 288.274693 329.065762 
L 288.579361 320.499198 
L 288.884029 339.59196 
L 289.188698 333.605487 
L 289.493366 334.537108 
L 289.798034 332.953565 
L 290.102703 328.660109 
L 290.407371 321.997021 
L 290.712039 342.40363 
L 291.016708 337.577297 
L 291.626044 336.763907 
L 292.235381 339.41115 
L 292.540049 338.371541 
L 292.844717 333.93986 
L 293.149386 338.148166 
L 293.454054 351.353547 
L 293.758722 337.807977 
L 294.063391 348.390506 
L 294.368059 341.310618 
L 294.672727 337.178165 
L 294.977396 304.962823 
L 295.282064 340.856774 
L 295.586732 346.566147 
L 296.196069 324.450911 
L 296.500737 336.359088 
L 296.805405 341.170987 
L 297.110074 300.405341 
L 297.414742 339.542481 
L 297.71941 332.382975 
L 298.024079 338.09058 
L 298.328747 331.343668 
L 298.633415 340.080582 
L 298.938084 335.105126 
L 299.242752 335.462784 
L 299.54742 334.9212 
L 299.852088 310.62722 
L 300.156757 340.004269 
L 300.461425 337.553444 
L 300.766093 343.354509 
L 301.070762 342.198589 
L 301.37543 325.593032 
L 301.680098 345.583805 
L 301.984767 346.700138 
L 302.289435 322.831159 
L 302.898771 346.767021 
L 303.20344 319.596905 
L 303.508108 347.544514 
L 303.812776 337.725665 
L 304.117445 333.953573 
L 304.422113 343.976331 
L 304.726781 337.048987 
L 305.03145 327.456504 
L 305.336118 312.910205 
L 305.640786 333.302615 
L 305.945455 318.119776 
L 306.250123 331.917784 
L 306.554791 323.180054 
L 306.859459 337.577724 
L 307.164128 326.503389 
L 307.468796 335.93077 
L 307.773464 332.407675 
L 308.078133 331.588107 
L 308.382801 347.314583 
L 308.687469 349.831169 
L 308.992138 313.64481 
L 309.601474 355.531216 
L 310.210811 317.176939 
L 310.515479 335.661624 
L 310.820147 342.892516 
L 311.124816 341.906536 
L 311.429484 333.132062 
L 311.734152 339.225809 
L 312.343489 346.217806 
L 312.648157 339.643039 
L 312.952826 348.602364 
L 313.257494 341.009169 
L 313.562162 340.334464 
L 313.86683 345.039282 
L 314.171499 294.589443 
L 314.476167 334.313538 
L 314.780835 346.57658 
L 315.085504 346.857792 
L 315.390172 332.624367 
L 315.69484 347.47018 
L 315.999509 347.653785 
L 316.304177 341.608594 
L 316.608845 340.958347 
L 316.913514 339.091539 
L 317.218182 351.973884 
L 318.132187 331.699992 
L 318.436855 345.231888 
L 318.741523 346.548886 
L 319.35086 340.867266 
L 319.655528 348.770476 
L 319.960197 116.77892 
L 320.264865 300.237981 
L 320.569533 279.258069 
L 320.874201 309.499264 
L 321.17887 221.090721 
L 321.788206 262.432605 
L 322.092875 236.18078 
L 322.397543 294.96137 
L 322.702211 283.076815 
L 323.00688 260.12489 
L 323.311548 309.691574 
L 323.616216 214.606074 
L 323.920885 212.728719 
L 324.225553 246.791082 
L 324.530221 264.11372 
L 324.834889 325.360209 
L 325.139558 323.397293 
L 325.444226 315.084863 
L 325.748894 329.201607 
L 326.358231 324.15882 
L 326.662899 320.914449 
L 326.967568 321.857172 
L 327.272236 318.894049 
L 327.881572 347.791031 
L 328.186241 333.9191 
L 328.490909 333.665592 
L 329.100246 259.339895 
L 329.404914 329.749862 
L 329.709582 309.51458 
L 330.014251 350.899048 
L 330.318919 356.297795 
L 330.928256 320.211686 
L 331.232924 338.909561 
L 331.537592 346.456099 
L 331.84226 324.960501 
L 332.146929 350.088636 
L 332.451597 335.518763 
L 332.756265 350.707917 
L 333.060934 353.690775 
L 333.365602 352.848992 
L 333.67027 332.815294 
L 333.974939 331.800715 
L 334.279607 347.583117 
L 334.584275 346.630187 
L 334.888943 336.361233 
L 335.193612 339.08689 
L 335.49828 339.816355 
L 335.802948 355.957485 
L 336.107617 348.966858 
L 336.412285 351.982083 
L 336.716953 351.132767 
L 337.021622 347.671362 
L 337.32629 350.785144 
L 337.630958 345.661889 
L 337.935627 351.893275 
L 338.240295 351.96914 
L 338.544963 353.575964 
L 338.849631 349.271234 
L 339.1543 351.002792 
L 339.458968 350.887655 
L 339.763636 345.303424 
L 340.068305 347.720223 
L 340.372973 351.679079 
L 340.677641 351.866914 
L 340.98231 357.875821 
L 341.286978 348.697162 
L 341.591646 350.809982 
L 341.896314 347.292603 
L 342.200983 347.864346 
L 342.505651 350.34001 
L 342.810319 346.339578 
L 343.419656 350.084398 
L 343.724324 356.545646 
L 344.028993 357.741012 
L 344.333661 356.561043 
L 344.638329 356.563034 
L 344.942998 357.739875 
L 345.247666 357.742735 
L 345.552334 349.690182 
L 345.857002 349.752925 
L 346.161671 351.054666 
L 346.466339 349.602969 
L 346.771007 357.739275 
L 348.599017 357.742687 
L 348.903686 354.828076 
L 349.208354 356.563591 
L 349.513022 344.749648 
L 350.122359 357.737579 
L 350.731695 357.737596 
L 351.036364 355.234103 
L 351.341032 355.332106 
L 351.6457 355.739862 
L 351.950369 357.746402 
L 352.255037 355.870321 
L 352.559705 357.741698 
L 354.692383 357.739472 
L 355.30172 355.589739 
L 355.606388 357.738342 
L 355.911057 349.766939 
L 356.215725 355.405518 
L 356.520393 357.743627 
L 356.825061 356.551299 
L 357.12973 356.546627 
L 357.434398 357.741836 
L 362.309091 357.735775 
L 363.223096 354.057094 
L 363.527764 356.08117 
L 363.832432 351.90704 
L 364.137101 356.549556 
L 364.441769 357.742256 
L 364.746437 352.625358 
L 365.051106 352.1212 
L 365.355774 355.592026 
L 365.660442 356.553903 
L 365.965111 356.556892 
L 366.269779 357.737885 
L 370.230467 357.745715 
L 370.535135 356.551133 
L 370.839803 356.559302 
L 371.144472 344.799 
L 371.44914 353.855365 
L 371.753808 350.582084 
L 372.058477 353.211921 
L 372.363145 357.744123 
L 373.581818 357.739036 
L 373.581818 357.739036 
" style="fill:none;stroke:#1f77b4;stroke-linecap:square;stroke-width:1.5;"/>
   </g>
   <g id="patch_3">
    <path d="M 54 378 
L 54 51.84 
" style="fill:none;stroke:#000000;stroke-linecap:square;stroke-linejoin:miter;stroke-width:0.8;"/>
   </g>
   <g id="patch_4">
    <path d="M 388.8 378 
L 388.8 51.84 
" style="fill:none;stroke:#000000;stroke-linecap:square;stroke-linejoin:miter;stroke-width:0.8;"/>
   </g>
   <g id="patch_5">
    <path d="M 54 378 
L 388.8 378 
" style="fill:none;stroke:#000000;stroke-linecap:square;stroke-linejoin:miter;stroke-width:0.8;"/>
   </g>
   <g id="patch_6">
    <path d="M 54 51.84 
L 388.8 51.84 
" style="fill:none;stroke:#000000;stroke-linecap:square;stroke-linejoin:miter;stroke-width:0.8;"/>
   </g>
   <g id="text_13">
    <!-- A0 -->
    <defs>
     <path d="M 34.1875 63.1875 
L 20.796875 26.90625 
L 47.609375 26.90625 
z
M 28.609375 72.90625 
L 39.796875 72.90625 
L 67.578125 0 
L 57.328125 0 
L 50.6875 18.703125 
L 17.828125 18.703125 
L 11.1875 0 
L 0.78125 0 
z
" id="DejaVuSans-65"/>
    </defs>
    <g transform="translate(228.864373 66.665455)scale(0.1 -0.1)">
     <use xlink:href="#DejaVuSans-65"/>
     <use x="68.408203" xlink:href="#DejaVuSans-48"/>
    </g>
   </g>
   <g id="text_14">
    <!-- C0 -->
    <defs>
     <path d="M 64.40625 67.28125 
L 64.40625 56.890625 
Q 59.421875 61.53125 53.78125 63.8125 
Q 48.140625 66.109375 41.796875 66.109375 
Q 29.296875 66.109375 22.65625 58.46875 
Q 16.015625 50.828125 16.015625 36.375 
Q 16.015625 21.96875 22.65625 14.328125 
Q 29.296875 6.6875 41.796875 6.6875 
Q 48.140625 6.6875 53.78125 8.984375 
Q 59.421875 11.28125 64.40625 15.921875 
L 64.40625 5.609375 
Q 59.234375 2.09375 53.4375 0.328125 
Q 47.65625 -1.421875 41.21875 -1.421875 
Q 24.65625 -1.421875 15.125 8.703125 
Q 5.609375 18.84375 5.609375 36.375 
Q 5.609375 53.953125 15.125 64.078125 
Q 24.65625 74.21875 41.21875 74.21875 
Q 47.75 74.21875 53.53125 72.484375 
Q 59.328125 70.75 64.40625 67.28125 
z
" id="DejaVuSans-67"/>
    </defs>
    <g transform="translate(226.122359 148.459024)scale(0.1 -0.1)">
     <use xlink:href="#DejaVuSans-67"/>
     <use x="69.824219" xlink:href="#DejaVuSans-48"/>
    </g>
   </g>
   <g id="text_15">
    <!-- C1 -->
    <g transform="translate(319.960197 116.77892)scale(0.1 -0.1)">
     <use xlink:href="#DejaVuSans-67"/>
     <use x="69.824219" xlink:href="#DejaVuSans-49"/>
    </g>
   </g>
   <g id="text_16">
    <!-- D0 -->
    <defs>
     <path d="M 19.671875 64.796875 
L 19.671875 8.109375 
L 31.59375 8.109375 
Q 46.6875 8.109375 53.6875 14.9375 
Q 60.6875 21.78125 60.6875 36.53125 
Q 60.6875 51.171875 53.6875 57.984375 
Q 46.6875 64.796875 31.59375 64.796875 
z
M 9.8125 72.90625 
L 30.078125 72.90625 
Q 51.265625 72.90625 61.171875 64.09375 
Q 71.09375 55.28125 71.09375 36.53125 
Q 71.09375 17.671875 61.125 8.828125 
Q 51.171875 0 30.078125 0 
L 9.8125 0 
z
" id="DejaVuSans-68"/>
    </defs>
    <g transform="translate(228.255037 246.191978)scale(0.1 -0.1)">
     <use xlink:href="#DejaVuSans-68"/>
     <use x="77.001953" xlink:href="#DejaVuSans-48"/>
    </g>
   </g>
   <g id="text_17">
    <!-- D1 -->
    <g transform="translate(229.169042 208.249805)scale(0.1 -0.1)">
     <use xlink:href="#DejaVuSans-68"/>
     <use x="77.001953" xlink:href="#DejaVuSans-49"/>
    </g>
   </g>
   <g id="text_18">
    <!-- D2 -->
    <g transform="translate(229.47371 244.687428)scale(0.1 -0.1)">
     <use xlink:href="#DejaVuSans-68"/>
     <use x="77.001953" xlink:href="#DejaVuSans-50"/>
    </g>
   </g>
   <g id="text_19">
    <!-- D3 -->
    <defs>
     <path d="M 40.578125 39.3125 
Q 47.65625 37.796875 51.625 33 
Q 55.609375 28.21875 55.609375 21.1875 
Q 55.609375 10.40625 48.1875 4.484375 
Q 40.765625 -1.421875 27.09375 -1.421875 
Q 22.515625 -1.421875 17.65625 -0.515625 
Q 12.796875 0.390625 7.625 2.203125 
L 7.625 11.71875 
Q 11.71875 9.328125 16.59375 8.109375 
Q 21.484375 6.890625 26.8125 6.890625 
Q 36.078125 6.890625 40.9375 10.546875 
Q 45.796875 14.203125 45.796875 21.1875 
Q 45.796875 27.640625 41.28125 31.265625 
Q 36.765625 34.90625 28.71875 34.90625 
L 20.21875 34.90625 
L 20.21875 43.015625 
L 29.109375 43.015625 
Q 36.375 43.015625 40.234375 45.921875 
Q 44.09375 48.828125 44.09375 54.296875 
Q 44.09375 59.90625 40.109375 62.90625 
Q 36.140625 65.921875 28.71875 65.921875 
Q 24.65625 65.921875 20.015625 65.03125 
Q 15.375 64.15625 9.8125 62.3125 
L 9.8125 71.09375 
Q 15.4375 72.65625 20.34375 73.4375 
Q 25.25 74.21875 29.59375 74.21875 
Q 40.828125 74.21875 47.359375 69.109375 
Q 53.90625 64.015625 53.90625 55.328125 
Q 53.90625 49.265625 50.4375 45.09375 
Q 46.96875 40.921875 40.578125 39.3125 
z
" id="DejaVuSans-51"/>
    </defs>
    <g transform="translate(321.17887 221.090721)scale(0.1 -0.1)">
     <use xlink:href="#DejaVuSans-68"/>
     <use x="77.001953" xlink:href="#DejaVuSans-51"/>
    </g>
   </g>
   <g id="text_20">
    <!-- D4 -->
    <g transform="translate(323.616216 214.606074)scale(0.1 -0.1)">
     <use xlink:href="#DejaVuSans-68"/>
     <use x="77.001953" xlink:href="#DejaVuSans-52"/>
    </g>
   </g>
   <g id="text_21">
    <!-- D5 -->
    <g transform="translate(323.920885 212.728719)scale(0.1 -0.1)">
     <use xlink:href="#DejaVuSans-68"/>
     <use x="77.001953" xlink:href="#DejaVuSans-53"/>
    </g>
   </g>
  </g>
 </g>
 <defs>
  <clipPath id="pce604f0a39">
   <rect height="326.16" width="334.8" x="54" y="51.84"/>
  </clipPath>
 </defs>
</svg>
